<?xml version="1.0" encoding="UTF-8"?>
<!-- Generator: visioncortex VTracer 0.6.5 -->
<svg version="1.1" xmlns="http://www.w3.org/2000/svg" width="1024" height="1024">
<path d="M0 0 C337.92 0 675.84 0 1024 0 C1024 337.92 1024 675.84 1024 1024 C686.08 1024 348.16 1024 0 1024 C0 686.08 0 348.16 0 0 Z " fill="#FCFCFC" transform="translate(0,0)"/>
<path d="M0 0 C1.1 0.52 2.2 1.03 3.33 1.57 C4.51 2.13 5.69 2.69 6.91 3.27 C9.43 4.45 11.96 5.64 14.48 6.82 C15.13 7.12 15.78 7.43 16.45 7.74 C23.49 11.03 30.57 14.22 37.66 17.39 C37.96 17.53 37.96 17.53 39.52 18.22 C45.71 20.99 51.91 23.75 58.13 26.45 C58.84 26.76 59.55 27.07 60.28 27.39 C61.4 27.88 62.52 28.36 63.67 28.87 C67.19 30.41 70.67 32.02 74.15 33.66 C83.28 37.93 92.44 42.16 101.59 46.39 C102.46 46.79 103.32 47.19 104.21 47.6 C114.13 52.17 124.04 56.74 134 61.2 C140.83 64.25 147.64 67.34 154.45 70.44 C168.03 76.62 181.62 82.8 195.22 88.95 C196.1 89.35 196.98 89.75 197.89 90.16 C212.04 96.57 226.22 102.9 240.42 109.18 C247.55 112.33 254.65 115.54 261.71 118.85 C268.53 122.05 275.39 125.17 282.25 128.29 C284.43 129.28 286.61 130.27 288.79 131.26 C290.21 131.9 291.62 132.55 293.03 133.19 C293.67 133.48 294.31 133.77 294.97 134.07 C299.09 135.94 303.24 137.73 307.41 139.52 C307.41 161.63 307.41 183.74 307.41 206.52 C288.98 215.73 288.98 215.73 282.63 218.63 C281.9 218.97 281.17 219.3 280.41 219.65 C278.1 220.71 275.78 221.77 273.47 222.83 C271.84 223.57 270.21 224.32 268.59 225.07 C258.32 229.77 248.02 234.4 237.65 238.85 C231.95 241.32 226.41 243.99 220.87 246.79 C214.78 249.86 208.58 252.68 202.36 255.48 C198.79 257.09 195.22 258.71 191.65 260.32 C190.9 260.66 190.16 261 189.39 261.35 C183.8 263.88 178.23 266.43 172.66 268.99 C171.85 269.36 171.04 269.73 170.21 270.12 C167.03 271.58 163.86 273.04 160.69 274.5 C158.5 275.52 156.3 276.53 154.1 277.54 C153.39 277.87 152.68 278.19 151.96 278.53 C148.14 280.28 144.32 282 140.48 283.69 C139.67 284.05 138.86 284.41 138.02 284.78 C136.47 285.46 134.91 286.14 133.35 286.82 C129.52 288.5 125.98 290.33 122.41 292.52 C120.99 293.13 119.55 293.71 118.1 294.25 C110.69 297.13 103.5 300.51 96.28 303.83 C93.47 305.12 90.65 306.41 87.84 307.69 C87.14 308.01 86.44 308.33 85.72 308.66 C80.87 310.87 75.99 313.01 71.1 315.12 C65.47 317.56 59.97 320.19 54.49 322.98 C48.3 326.06 41.97 328.86 35.66 331.7 C32.74 333.02 29.82 334.34 26.91 335.66 C26.19 335.99 25.46 336.31 24.72 336.65 C20.17 338.71 15.63 340.8 11.09 342.9 C10 343.41 8.9 343.92 7.77 344.44 C5.75 345.38 3.72 346.33 1.7 347.28 C1.26 347.49 1.26 347.49 -1.02 348.54 C-1.78 348.9 -2.55 349.26 -3.35 349.63 C-6.81 350.99 -9.46 351.9 -13.05 350.69 C-13.97 350.22 -14.89 349.75 -15.84 349.27 C-21.09 346.71 -26.36 344.29 -31.72 341.97 C-45.58 335.96 -59.25 329.56 -72.9 323.09 C-79.77 319.84 -86.66 316.64 -93.59 313.52 C-96.15 312.35 -98.7 311.19 -101.25 310.03 C-104.05 308.75 -106.86 307.48 -109.66 306.2 C-110.39 305.87 -111.12 305.54 -111.87 305.2 C-120.83 301.12 -129.81 297.07 -138.81 293.09 C-143.88 290.85 -148.9 288.52 -153.91 286.16 C-159.53 283.52 -165.21 281.01 -170.9 278.53 C-175.13 276.68 -179.26 274.69 -183.38 272.61 C-189.46 269.54 -195.65 266.78 -201.91 264.08 C-209.85 260.61 -217.75 257.1 -225.58 253.4 C-232 250.37 -238.48 247.45 -244.95 244.51 C-249.46 242.45 -253.94 240.36 -258.37 238.12 C-264.45 235.05 -270.65 232.25 -276.85 229.44 C-278.84 228.55 -280.82 227.65 -282.8 226.75 C-297.04 220.29 -311.32 213.91 -325.59 207.52 C-325.59 185.08 -325.59 162.64 -325.59 139.52 C-308.16 131.58 -290.71 123.66 -273.26 115.75 C-271.47 114.94 -269.67 114.12 -267.87 113.31 C-259.36 109.45 -250.85 105.61 -242.29 101.89 C-235.33 98.87 -228.46 95.69 -221.6 92.46 C-214.74 89.24 -207.85 86.07 -200.97 82.89 C-200.12 82.5 -199.27 82.1 -198.39 81.7 C-186.42 76.17 -174.43 70.72 -162.39 65.35 C-152.93 61.13 -143.51 56.83 -134.09 52.52 C-118.63 45.43 -103.12 38.45 -87.59 31.52 C-83.09 29.5 -78.58 27.49 -74.08 25.47 C-72.3 24.68 -70.52 23.88 -68.75 23.09 C-58.91 18.69 -49.15 14.13 -39.4 9.54 C-35.82 7.86 -32.23 6.19 -28.64 4.52 C-27.17 3.84 -25.71 3.16 -24.25 2.46 C-22.09 1.45 -19.94 0.45 -17.77 -0.55 C-17.12 -0.86 -16.48 -1.17 -15.81 -1.49 C-9.47 -4.37 -6.01 -2.85 0 0 Z " fill="#1E4286" transform="translate(521.59375,216.484375)"/>
<path d="M0 0 C2.2 1.11 4.36 2.28 6.5 3.5 C8.21 4.36 9.91 5.22 11.63 6.07 C12.9 6.7 14.17 7.34 15.43 7.99 C22.52 11.61 29.79 14.83 37.06 18.06 C37.7 18.35 38.34 18.63 38.99 18.92 C39.62 19.2 40.25 19.48 40.91 19.77 C48.48 23.15 56.02 26.57 63.52 30.1 C66.25 31.38 69 32.64 71.75 33.88 C75.03 35.35 78.28 36.87 81.52 38.42 C90.7 42.82 99.93 47.05 109.25 51.12 C119.13 55.45 128.94 59.89 138.68 64.54 C147.06 68.54 155.44 72.51 163.94 76.25 C171.54 79.6 179.09 83.06 186.62 86.56 C187.8 87.11 188.97 87.65 190.18 88.21 C196.06 90.95 201.94 93.7 207.81 96.48 C210.66 97.83 213.51 99.17 216.36 100.52 C218.37 101.47 220.39 102.43 222.4 103.39 C229.38 106.69 236.39 109.72 243.65 112.37 C247.37 113.85 250.81 115.69 254.28 117.68 C258.27 119.15 261.61 117.53 265.33 115.88 C266.83 115.18 268.32 114.48 269.82 113.78 C270.62 113.41 271.43 113.03 272.26 112.65 C274.86 111.44 277.46 110.22 280.06 109 C282.74 107.75 285.41 106.51 288.09 105.27 C289.84 104.45 291.6 103.64 293.35 102.82 C299.5 99.96 305.67 97.14 311.88 94.38 C318 91.64 324.09 88.82 330.15 85.94 C339.49 81.53 348.91 77.3 358.31 73.04 C359.68 72.42 361.05 71.8 362.41 71.18 C363.09 70.88 363.76 70.58 364.45 70.26 C368.51 68.42 372.55 66.54 376.58 64.64 C385.65 60.36 385.65 60.36 389.98 58.79 C393.73 57.42 397.22 55.71 400.75 53.88 C407.33 50.53 414 47.42 420.74 44.42 C429.48 40.52 438.18 36.54 446.88 32.56 C449.92 31.17 452.96 29.78 456.01 28.38 C456.38 28.21 456.38 28.21 458.24 27.36 C464.4 24.54 470.58 21.74 476.75 18.94 C481.95 16.58 487.15 14.22 492.32 11.78 C494.1 10.95 495.89 10.14 497.68 9.34 C500.63 7.98 503.4 6.4 506.2 4.75 C517.99 -1.89 517.99 -1.89 523.71 -1.25 C528.68 0.29 532.98 3.1 537.4 5.77 C543.34 9.09 549.62 11.73 555.84 14.48 C559.52 16.12 563.18 17.78 566.85 19.44 C567.18 19.58 567.18 19.58 568.84 20.33 C573.39 22.39 573.39 22.39 574.5 23.5 C574.59 25.62 574.62 27.74 574.61 29.86 C574.61 30.52 574.61 31.18 574.61 31.87 C574.61 34.07 574.61 36.27 574.6 38.47 C574.6 40 574.59 41.52 574.59 43.04 C574.59 47.06 574.58 51.07 574.57 55.09 C574.56 59.19 574.55 63.28 574.55 67.38 C574.54 75.42 574.52 83.46 574.5 91.5 C573.61 91.84 572.71 92.18 571.79 92.53 C570.62 92.98 569.45 93.43 568.24 93.89 C567.66 94.12 567.66 94.12 564.72 95.24 C561.19 96.62 557.79 98.12 554.38 99.75 C553.75 100.04 553.13 100.34 552.49 100.64 C550.49 101.59 548.5 102.54 546.5 103.5 C533.7 109.63 520.81 115.57 507.88 121.43 C497.19 126.27 486.53 131.16 475.88 136.06 C462.93 142.02 449.96 147.93 436.96 153.77 C430.82 156.53 424.71 159.33 418.61 162.18 C413.63 164.52 408.63 166.78 403.56 168.94 C398.33 171.19 393.22 173.61 388.14 176.21 C379.28 180.7 370.22 184.7 361.12 188.69 C343.27 196.52 343.27 196.52 335.7 200.39 C331.86 202.33 327.93 204.06 324 205.81 C323.14 206.2 322.28 206.58 321.4 206.98 C317.19 208.86 312.98 210.73 308.77 212.58 C300.86 216.05 293.06 219.65 285.35 223.56 C278.48 227.04 271.52 230.33 264.5 233.5 C264.08 233.71 264.08 233.71 261.95 234.76 C256.55 236.39 251.75 233.9 246.9 231.58 C246.27 231.28 245.65 230.99 245 230.68 C243.66 230.04 242.32 229.4 240.97 228.76 C238.84 227.73 236.7 226.72 234.56 225.7 C231.62 224.31 228.69 222.92 225.75 221.52 C219.58 218.58 213.39 215.69 207.19 212.81 C206.05 212.28 204.92 211.76 203.75 211.21 C194.6 206.98 185.4 202.89 176.18 198.82 C168.29 195.33 160.49 191.69 152.73 187.94 C146.96 185.17 141.14 182.57 135.25 180.05 C129.87 177.72 124.63 175.13 119.43 172.43 C115.65 170.49 111.83 168.78 107.91 167.17 C101.56 164.56 95.35 161.69 89.14 158.77 C85.86 157.22 82.58 155.68 79.29 154.14 C78.63 153.84 77.97 153.53 77.3 153.21 C71.07 150.29 64.82 147.42 58.56 144.56 C48.65 140.03 38.76 135.45 28.89 130.8 C22.4 127.75 15.88 124.77 9.31 121.88 C-1.78 116.97 -12.77 111.83 -23.76 106.71 C-26.38 105.49 -28.99 104.27 -31.6 103.06 C-32.02 102.86 -32.02 102.86 -34.14 101.88 C-40.3 99.03 -46.51 96.27 -52.76 93.6 C-57.4 91.6 -57.4 91.6 -58.5 90.5 C-58.59 88.38 -58.62 86.26 -58.61 84.14 C-58.61 83.48 -58.61 82.82 -58.61 82.13 C-58.61 79.93 -58.61 77.73 -58.6 75.53 C-58.6 74 -58.59 72.48 -58.59 70.96 C-58.59 66.94 -58.58 62.93 -58.57 58.91 C-58.56 54.81 -58.55 50.72 -58.55 46.62 C-58.54 38.58 -58.52 30.54 -58.5 22.5 C-57.49 22.06 -56.49 21.61 -55.45 21.16 C-51.63 19.48 -47.81 17.79 -44 16.1 C-42.36 15.38 -40.73 14.66 -39.09 13.94 C-36.7 12.89 -34.32 11.84 -31.94 10.78 C-31.15 10.43 -30.36 10.09 -29.55 9.73 C-25.62 7.97 -21.77 6.15 -17.97 4.13 C-17.25 3.75 -16.54 3.37 -15.8 2.98 C-14.45 2.27 -13.12 1.53 -11.79 0.78 C-7.31 -1.61 -4.76 -1.68 0 0 Z " fill="#C59728" transform="translate(254.5,448.5)"/>
<path d="M0 0 C3.99 2.2 8.15 3.96 12.33 5.77 C19.35 8.9 26.29 12.18 33.21 15.52 C46.93 22.13 60.81 28.38 74.69 34.66 C79.95 37.04 85.2 39.43 90.46 41.83 C96.2 44.44 101.95 47.03 107.72 49.57 C114.84 52.7 121.83 56.01 128.77 59.54 C134.12 62.22 139.6 64.62 145.07 67.05 C150.07 69.29 155.06 71.56 160.02 73.89 C169.14 78.17 178.33 82.27 187.52 86.39 C206.49 94.89 206.49 94.89 214.83 98.77 C216 99.31 217.18 99.85 218.38 100.41 C221.72 101.99 225.02 103.64 228.31 105.3 C229.34 105.81 230.36 106.32 231.41 106.85 C233.45 107.86 235.47 108.88 237.49 109.92 C242.9 112.6 246.48 114.28 252.52 112.39 C255.63 111.04 255.63 111.04 258.83 109.33 C264.29 106.47 269.81 103.86 275.46 101.39 C281.02 98.94 286.57 96.47 292.08 93.89 C292.68 93.61 293.29 93.33 293.91 93.03 C297.16 91.5 300.42 89.96 303.67 88.42 C310.62 85.13 317.58 81.89 324.64 78.83 C330.79 76.16 336.88 73.39 342.95 70.53 C349.71 67.36 356.48 64.23 363.26 61.09 C369.64 58.13 376.02 55.16 382.37 52.14 C389.56 48.71 396.83 45.49 404.14 42.33 C414.87 37.69 425.46 32.84 435.97 27.75 C448.38 21.74 460.85 15.93 473.46 10.35 C479.82 7.53 486.14 4.64 492.41 1.61 C493.69 0.99 494.98 0.37 496.27 -0.24 C498.73 -1.42 501.16 -2.62 503.6 -3.82 C504.7 -4.35 505.79 -4.88 506.93 -5.42 C507.41 -5.65 507.41 -5.65 509.84 -6.85 C513.28 -7.83 514.37 -7.23 517.52 -5.61 C518.64 -5.11 519.76 -4.61 520.91 -4.1 C522.2 -3.52 523.48 -2.93 524.77 -2.34 C525.46 -2.03 526.16 -1.71 526.87 -1.39 C528.34 -0.72 529.81 -0.05 531.28 0.62 C533.48 1.62 535.69 2.63 537.89 3.63 C546.45 7.52 554.99 11.44 563.52 15.39 C563.52 16.05 563.52 16.71 563.52 17.39 C559.56 19.72 555.81 21.72 551.52 23.39 C534.5 30.39 517.78 38.09 501.41 46.5 C497.77 48.33 494.02 49.81 490.22 51.3 C485.19 53.33 480.3 55.66 475.39 57.95 C473.09 59.02 470.79 60.09 468.49 61.16 C467.91 61.42 467.91 61.42 464.98 62.79 C459.61 65.28 454.22 67.74 448.83 70.2 C442.38 73.15 435.94 76.12 429.52 79.14 C423.77 81.84 417.98 84.41 412.15 86.91 C409.02 88.25 405.96 89.66 402.93 91.2 C396.26 94.58 389.36 97.51 382.53 100.53 C374.48 104.08 366.57 107.8 358.74 111.8 C354.26 114.01 349.67 115.93 345.06 117.87 C340.84 119.68 336.7 121.62 332.55 123.57 C327.23 126.07 321.88 128.49 316.52 130.89 C309.59 134 302.69 137.16 295.81 140.38 C292.36 142 288.9 143.61 285.44 145.21 C284.35 145.72 283.25 146.23 282.12 146.75 C279.84 147.8 277.56 148.84 275.27 149.86 C270.23 152.12 265.39 154.36 260.76 157.36 C255.5 160.62 250.99 163.18 244.7 161.75 C237.81 159.28 231.48 155.79 225.09 152.28 C219.62 149.33 213.91 146.89 208.22 144.41 C205.13 143.05 202.05 141.67 198.97 140.28 C197.84 139.78 196.72 139.28 195.56 138.76 C187.79 135.26 180.09 131.64 172.43 127.91 C161 122.36 149.48 117.19 137.74 112.31 C131.03 109.5 124.48 106.51 118.01 103.17 C113.55 100.87 109.01 98.81 104.39 96.83 C96 93.23 87.9 89.16 79.78 84.98 C75.9 83 72.04 81.16 67.98 79.59 C62.02 77.23 56.21 74.58 50.39 71.89 C49.36 71.42 48.33 70.94 47.27 70.46 C42.24 68.14 37.24 65.79 32.31 63.29 C24.12 59.17 15.72 55.46 7.33 51.77 C-4.23 46.67 -15.67 41.29 -27.12 35.95 C-36.83 31.44 -46.56 26.97 -56.29 22.52 C-56.84 22.27 -56.84 22.27 -59.58 21.01 C-62.22 19.8 -64.85 18.6 -67.48 17.39 C-67.48 16.73 -67.48 16.07 -67.48 15.39 C-66.34 14.89 -65.21 14.4 -64.04 13.89 C-56.77 10.7 -49.55 7.49 -42.48 3.89 C-41.92 3.62 -41.92 3.62 -39.08 2.23 C-36.4 0.91 -33.87 -0.58 -31.32 -2.14 C-18.83 -9.32 -12.08 -6.9 0 0 Z " fill="#DBDADA" transform="translate(264.48095703125,569.60986328125)"/>
<path d="M0 0 C0.99 0 1.98 0 3 0 C3 22.11 3 44.22 3 67 C-15.42 76.21 -15.42 76.21 -21.78 79.11 C-22.51 79.45 -23.24 79.79 -23.99 80.13 C-26.31 81.2 -28.62 82.25 -30.94 83.31 C-32.57 84.06 -34.19 84.81 -35.82 85.55 C-46.09 90.25 -56.38 94.88 -66.76 99.34 C-72.45 101.8 -78 104.48 -83.53 107.28 C-89.63 110.35 -95.83 113.17 -102.05 115.97 C-105.62 117.58 -109.19 119.19 -112.76 120.81 C-113.5 121.15 -114.25 121.48 -115.02 121.83 C-120.6 124.36 -126.17 126.91 -131.74 129.47 C-132.15 129.66 -132.15 129.66 -134.2 130.6 C-137.37 132.06 -140.54 133.52 -143.71 134.99 C-145.91 136 -148.11 137.01 -150.31 138.03 C-151.02 138.35 -151.72 138.68 -152.45 139.01 C-156.26 140.76 -160.08 142.49 -163.92 144.18 C-164.74 144.53 -165.55 144.89 -166.39 145.26 C-167.94 145.95 -169.5 146.63 -171.05 147.3 C-174.88 148.98 -178.43 150.82 -182 153 C-183.42 153.61 -184.86 154.19 -186.3 154.73 C-193.71 157.62 -200.9 161 -208.12 164.31 C-210.94 165.6 -213.75 166.89 -216.57 168.18 C-217.27 168.49 -217.96 168.81 -218.68 169.14 C-223.53 171.35 -228.41 173.49 -233.3 175.61 C-238.94 178.05 -244.44 180.68 -249.91 183.46 C-256.11 186.55 -262.44 189.34 -268.75 192.19 C-271.67 193.51 -274.58 194.82 -277.5 196.14 C-278.22 196.47 -278.94 196.8 -279.68 197.13 C-284.24 199.19 -288.78 201.28 -293.31 203.39 C-294.41 203.9 -295.5 204.4 -296.63 204.93 C-298.66 205.87 -300.68 206.81 -302.7 207.76 C-303.6 208.18 -304.5 208.59 -305.42 209.02 C-305.81 209.2 -305.81 209.2 -307.75 210.11 C-311.45 211.57 -313.99 212.34 -317.81 211.06 C-318.53 210.71 -319.26 210.36 -320 210 C-317 208 -317 208 -315 207 C-314.67 186.54 -314.34 166.08 -314 145 C-305.08 140.54 -296.26 136.25 -287.12 132.31 C-275.3 127.2 -275.3 127.2 -271.23 125.12 C-265.38 122.13 -259.36 119.5 -253.38 116.8 C-241.15 111.28 -228.98 105.68 -216.88 99.9 C-208.59 95.94 -200.21 92.2 -191.79 88.53 C-187.23 86.55 -182.7 84.52 -178.18 82.45 C-173.75 80.43 -169.31 78.43 -164.88 76.44 C-164.04 76.06 -163.2 75.69 -162.34 75.3 C-161.53 74.93 -160.71 74.56 -159.87 74.18 C-159.05 73.82 -158.23 73.45 -157.39 73.07 C-155.87 72.39 -154.34 71.71 -152.8 71.04 C-147.53 68.73 -142.36 66.26 -137.18 63.74 C-128.85 59.68 -120.55 55.67 -111.94 52.25 C-105.96 49.87 -100.24 47.2 -94.52 44.27 C-88.28 41.09 -81.93 38.16 -75.56 35.25 C-74.56 34.79 -73.55 34.33 -72.51 33.86 C-68.17 31.88 -63.82 29.91 -59.45 27.98 C-54.36 25.73 -49.31 23.39 -44.25 21.06 C-37.2 17.82 -30.14 14.61 -23.05 11.46 C-22.72 11.31 -22.72 11.31 -21.05 10.57 C-17.79 9.12 -14.53 7.68 -11.27 6.24 C-10.68 5.98 -10.68 5.98 -7.7 4.65 C-6.64 4.19 -5.59 3.72 -4.51 3.25 C-2 2 -2 2 0 0 Z " fill="#122861" transform="translate(826,356)"/>
<path d="M0 0 C0.61 0.31 1.23 0.62 1.86 0.94 C4.11 2.06 6.39 3.1 8.68 4.14 C9.58 4.55 10.48 4.95 11.41 5.37 C11.89 5.59 11.89 5.59 14.31 6.69 C20.58 9.53 26.84 12.38 33.06 15.31 C37.98 17.62 42.92 19.86 47.88 22.07 C48.5 22.35 49.13 22.63 49.77 22.92 C52.92 24.32 56.07 25.72 59.22 27.12 C66.43 30.33 73.51 33.72 80.56 37.28 C86.08 40.04 91.7 42.61 97.31 45.19 C98.41 45.69 99.52 46.2 100.65 46.72 C106.01 49.19 111.38 51.62 116.78 54.01 C121.14 55.95 125.47 57.95 129.81 59.94 C130.84 60.41 131.87 60.88 132.93 61.36 C138.67 64 144.4 66.65 150.12 69.33 C171.07 79.12 171.07 79.12 181.25 83.31 C187.46 85.87 193.48 88.66 199.46 91.72 C213.9 99.07 228.76 105.66 243.6 112.15 C248.65 114.37 253.64 116.69 258.64 119.03 C264.11 121.59 269.6 124.13 275.08 126.66 C276.86 127.48 278.63 128.3 280.4 129.12 C283.12 130.38 285.84 131.64 288.55 132.89 C291.23 134.13 293.91 135.36 296.58 136.6 C297.38 136.97 298.18 137.34 299 137.72 C304.73 140.37 310.34 143.17 316 146 C316 167.78 316 189.56 316 212 C316.66 212.33 317.32 212.66 318 213 C313.31 212.42 309.65 211.11 305.4 209.08 C304.77 208.78 304.15 208.49 303.5 208.18 C302.16 207.54 300.82 206.9 299.47 206.26 C297.34 205.23 295.2 204.22 293.06 203.2 C290.12 201.81 287.19 200.42 284.25 199.02 C278.08 196.08 271.89 193.19 265.69 190.31 C264.55 189.78 263.42 189.26 262.25 188.71 C253.1 184.48 243.9 180.39 234.68 176.32 C226.79 172.83 218.99 169.19 211.23 165.44 C205.46 162.67 199.64 160.07 193.75 157.55 C188.37 155.22 183.13 152.63 177.93 149.93 C174.15 147.99 170.33 146.28 166.41 144.67 C160.06 142.06 153.85 139.19 147.64 136.27 C144.36 134.72 141.08 133.18 137.79 131.64 C137.13 131.34 136.47 131.03 135.8 130.71 C129.57 127.79 123.32 124.92 117.06 122.06 C107.15 117.53 97.26 112.95 87.39 108.3 C80.9 105.25 74.38 102.27 67.81 99.38 C56.72 94.47 45.73 89.33 34.74 84.21 C32.12 82.99 29.51 81.77 26.9 80.56 C26.48 80.36 26.48 80.36 24.36 79.38 C18.2 76.53 11.99 73.77 5.74 71.1 C1.1 69.1 1.1 69.1 0 68 C-0.09 65.88 -0.12 63.76 -0.11 61.64 C-0.11 60.98 -0.11 60.32 -0.11 59.63 C-0.11 57.43 -0.11 55.23 -0.1 53.03 C-0.1 51.5 -0.09 49.98 -0.09 48.46 C-0.09 44.44 -0.08 40.43 -0.07 36.41 C-0.06 32.31 -0.05 28.22 -0.05 24.12 C-0.04 16.08 -0.02 8.04 0 0 Z " fill="#EDBC2A" transform="translate(196,471)"/>
<path d="M0 0 C1.32 0 2.64 0 4 0 C4 22.44 4 44.88 4 68 C1.86 68.83 1.86 68.83 -9 73 C-11.39 74.05 -13.77 75.13 -16.12 76.25 C-16.75 76.54 -17.37 76.84 -18.01 77.14 C-20.01 78.09 -22 79.04 -24 80 C-36.8 86.13 -49.69 92.07 -62.62 97.93 C-73.31 102.77 -83.97 107.66 -94.62 112.56 C-107.57 118.52 -120.54 124.43 -133.54 130.27 C-139.68 133.03 -145.79 135.83 -151.89 138.68 C-156.87 141.02 -161.87 143.28 -166.94 145.44 C-172.17 147.69 -177.28 150.11 -182.36 152.71 C-191.22 157.2 -200.28 161.2 -209.38 165.19 C-227.23 173.02 -227.23 173.02 -234.8 176.89 C-238.64 178.83 -242.57 180.56 -246.5 182.31 C-247.36 182.7 -248.22 183.08 -249.1 183.48 C-253.31 185.36 -257.52 187.23 -261.73 189.08 C-268.97 192.25 -276.14 195.5 -283.19 199.06 C-288.46 201.73 -293.74 204.38 -299.06 206.94 C-300.23 207.5 -301.4 208.07 -302.6 208.65 C-306 210 -306 210 -313 211 C-313 189.22 -313 167.44 -313 145 C-299 138 -299 138 -295 138 C-295 137.34 -295 136.68 -295 136 C-294.39 135.77 -293.79 135.54 -293.16 135.3 C-287.66 133.16 -282.43 130.76 -277.23 127.95 C-275 127 -275 127 -271 127 C-271 126.34 -271 125.68 -271 125 C-270.39 124.76 -269.78 124.51 -269.15 124.26 C-251.52 117.06 -234.3 108.84 -217.11 100.68 C-216.26 100.27 -215.41 99.87 -214.54 99.46 C-212.89 98.68 -211.25 97.89 -209.61 97.11 C-205.77 95.28 -201.92 93.54 -198.01 91.89 C-192.07 89.26 -186.26 86.32 -180.42 83.47 C-174.87 80.78 -169.32 78.28 -163.57 76.04 C-158.4 73.95 -153.37 71.54 -148.31 69.19 C-147.16 68.65 -146.02 68.12 -144.83 67.57 C-141.55 66.05 -138.28 64.53 -135 63 C-134.2 62.63 -133.4 62.26 -132.58 61.88 C-127.11 59.33 -121.64 56.78 -116.19 54.2 C-110.4 51.47 -104.61 48.8 -98.69 46.38 C-94.22 44.55 -89.92 42.51 -85.62 40.32 C-80.48 37.74 -75.23 35.39 -70 33 C-69.05 32.57 -68.09 32.13 -67.11 31.68 C-64.41 30.45 -61.7 29.23 -59 28 C-58.2 27.64 -57.4 27.27 -56.57 26.89 C-52.31 24.95 -48.05 23.02 -43.77 21.11 C-33.79 16.63 -23.82 12.12 -13.88 7.56 C-12.73 7.04 -11.59 6.52 -10.41 5.99 C-9.34 5.5 -8.28 5.01 -7.18 4.5 C-6.23 4.07 -5.28 3.63 -4.3 3.19 C-2 2 -2 2 0 0 Z " fill="#D6A52D" transform="translate(825,472)"/>
<path d="M0 0 C0.33 0 0.66 0 1 0 C1 21.78 1 43.56 1 66 C1.66 66.33 2.32 66.66 3 67 C-3.75 66.25 -3.75 66.25 -6 64 C-4.35 63.34 -2.7 62.68 -1 62 C-0.67 41.54 -0.34 21.08 0 0 Z " fill="#172F6A" transform="translate(512,501)"/>
<path d="M0 0 C0.33 0 0.66 0 1 0 C1.01 0.77 1.02 1.54 1.03 2.34 C1.13 9.61 1.23 16.88 1.34 24.15 C1.39 27.89 1.45 31.62 1.5 35.36 C1.54 38.96 1.6 42.57 1.65 46.17 C1.67 47.55 1.69 48.93 1.71 50.31 C1.73 52.23 1.76 54.16 1.79 56.08 C1.81 57.18 1.83 58.28 1.84 59.41 C2 62 2 62 3 64 C2.56 66.12 2.56 66.12 2 68 C3.32 68.33 4.64 68.66 6 69 C5.67 69.16 5.67 69.16 4 70 C2.68 69.34 1.36 68.68 0 68 C0 45.56 0 23.12 0 0 Z " fill="#F8CC45" transform="translate(196,471)"/>
<path d="M0 0 C0.33 0 0.66 0 1 0 C1 14.19 1 28.38 1 43 C1.66 43.33 2.32 43.66 3 44 C-2.75 43.25 -2.75 43.25 -5 41 C-4.34 40.84 -4.34 40.84 -1 40 C-0.67 26.8 -0.34 13.6 0 0 Z " fill="#E8BB40" transform="translate(511,640)"/>
<path d="M0 0 C2.64 0 5.28 0 8 0 C5.4 2.6 2.77 3.47 -0.62 4.88 C-4.73 6.59 -8.79 8.33 -12.75 10.38 C-16 12 -16 12 -18 12 C-18 11.34 -18 10.68 -18 10 C-17.34 10 -16.68 10 -16 10 C-16 9.34 -16 8.68 -16 8 C-14.02 8 -12.04 8 -10 8 C-10 7.34 -10 6.68 -10 6 C-7.09 4.74 -5.2 4 -2 4 C-1.34 2.68 -0.68 1.36 0 0 Z " fill="#3A3026" transform="translate(589,529)"/>
<path d="M0 0 C0.66 1.32 1.32 2.64 2 4 C3.32 4 4.64 4 6 4 C6.66 4 7.32 4 8 4 C8 5.32 8 6.64 8 8 C8.76 7.77 9.53 7.55 10.31 7.31 C11.2 7.21 12.09 7.11 13 7 C14.81 8.44 14.81 8.44 16 10 C15.67 10.66 15.34 11.32 15 12 C8.2 9.23 1.52 6.39 -5 3 C-5 2.67 -5 2.34 -5 2 C-3.35 2 -1.7 2 0 2 C0 1.34 0 0.68 0 0 Z " fill="#253C67" transform="translate(246,441)"/>
<path d="M0 0 C0.66 0.66 1.32 1.32 2 2 C1.67 2.66 1.34 3.32 1 4 C2.65 3.67 4.3 3.34 6 3 C6 3.66 6 4.32 6 5 C6.99 5.17 6.99 5.17 12 6 C12.33 7.32 12.66 8.64 13 10 C9.03 9.21 5.44 7.55 1.75 5.94 C1.1 5.66 0.45 5.37 -0.22 5.08 C-1.81 4.39 -3.41 3.7 -5 3 C-4.36 2.69 -3.72 2.38 -3.06 2.06 C-1 1 -1 1 0 0 Z " fill="#2A3D5E" transform="translate(367,497)"/>
<path d="M0 0 C0.66 0.33 1.32 0.66 2 1 C2.73 3.31 3.4 5.65 4 8 C4.99 8 5.98 8 7 8 C7 8.66 7 9.32 7 10 C0.8 8.06 -5.11 5.74 -11 3 C-7.62 2.02 -5.43 2.14 -2 3 C-1.34 2.01 -0.68 1.02 0 0 Z " fill="#313F5B" transform="translate(351,487)"/>
<path d="M0 0 C0.33 0.99 0.66 1.98 1 3 C0.67 3.17 0.67 3.17 -1 4 C2.44 6.29 3.99 6.18 8 6 C8.33 7.65 8.66 9.3 9 11 C3 9.17 -2.45 6.93 -8 4 C-8 3.67 -8 3.34 -8 3 C-6.87 2.69 -5.73 2.38 -4.56 2.06 C-1 1 -1 1 0 0 Z " fill="#344152" transform="translate(270,450)"/>
<path d="M0 0 C9.59 2.89 9.59 2.89 13 6 C11.35 6.33 9.7 6.66 8 7 C8 6.34 8 5.68 8 5 C7.34 5 6.68 5 6 5 C6 5.99 6 6.98 6 8 C4.35 8 2.7 8 1 8 C1.02 7.24 1.04 6.47 1.06 5.69 C1 3 1 3 0 0 Z " fill="#BF9632" transform="translate(297,470)"/>
<path d="M0 0 C0.99 0.66 1.98 1.32 3 2 C-0.62 3.67 -4.25 5.34 -7.88 7 C-8.39 7.24 -8.39 7.24 -11 8.45 C-11.99 8.9 -12.98 9.35 -13.99 9.81 C-14.9 10.23 -15.81 10.65 -16.75 11.08 C-19 12 -19 12 -21 12 C-21 11.34 -21 10.68 -21 10 C-20.01 10 -19.02 10 -18 10 C-18 9.34 -18 8.68 -18 8 C-16.35 8 -14.7 8 -13 8 C-13 7.34 -13 6.68 -13 6 C-12.26 5.71 -11.51 5.42 -10.75 5.12 C-8 4 -8 4 -5.94 2.88 C-4 2 -4 2 0 2 C0 1.34 0 0.68 0 0 Z " fill="#DDEEFC" transform="translate(321,297)"/>
<path d="M0 0 C1.32 0.66 2.64 1.32 4 2 C0.71 3.51 -2.58 5 -5.88 6.5 C-6.81 6.93 -7.75 7.36 -8.71 7.8 C-9.61 8.21 -10.51 8.61 -11.43 9.03 C-12.26 9.41 -13.08 9.79 -13.94 10.17 C-16 11 -16 11 -18 11 C-18 10.34 -18 9.68 -18 9 C-16.68 9 -15.36 9 -14 9 C-14 8.34 -14 7.68 -14 7 C-12.68 7 -11.36 7 -10 7 C-10 6.34 -10 5.68 -10 5 C-9.72 4.9 -9.72 4.9 -8.32 4.41 C-7.6 4.15 -6.87 3.89 -6.12 3.62 C-5.41 3.37 -4.69 3.11 -3.95 2.85 C-2 2 -2 2 0 0 Z " fill="#DAEDFB" transform="translate(225,340)"/>
<path d="M0 0 C1.65 0 3.3 0 5 0 C1.46 2.95 -2.41 4.77 -6.56 6.69 C-7.23 7.01 -7.91 7.33 -8.6 7.66 C-11.57 9.04 -13.69 10 -17 10 C-17 9.34 -17 8.68 -17 8 C-15.59 7.32 -14.17 6.66 -12.75 6 C-12.36 5.81 -12.36 5.81 -10.36 4.88 C-8 4 -8 4 -4 4 C-4 3.34 -4 2.68 -4 2 C-2.68 2 -1.36 2 0 2 C0 1.34 0 0.68 0 0 Z " fill="#C3A762" transform="translate(683,603)"/>
<path d="M0 0 C1.65 0 3.3 0 5 0 C1.99 2.43 -1.04 4.09 -4.56 5.69 C-5.51 6.12 -6.46 6.56 -7.44 7.01 C-10 8 -10 8 -13 8 C-13 7.34 -13 6.68 -13 6 C-11.68 6 -10.36 6 -9 6 C-8.34 4.68 -7.68 3.36 -7 2 C-4.69 2 -2.38 2 0 2 C0 1.34 0 0.68 0 0 Z " fill="#C6A856" transform="translate(770,563)"/>
<path d="M0 0 C0.33 0 0.66 0 1 0 C1 6.6 1 13.2 1 20 C1.66 20.33 2.32 20.66 3 21 C-3.75 20.25 -3.75 20.25 -6 18 C-4.35 17.34 -2.7 16.68 -1 16 C-0.67 10.72 -0.34 5.44 0 0 Z " fill="#26365E" transform="translate(512,547)"/>
<path d="M0 0 C0.66 0.66 1.32 1.32 2 2 C1.67 2.99 1.34 3.98 1 5 C1.99 5.33 2.98 5.66 4 6 C4 6.66 4 7.32 4 8 C-0.47 6.58 -4.71 4.89 -9 3 C-9 2.67 -9 2.34 -9 2 C-6.95 1.77 -4.9 1.54 -2.85 1.32 C-1 1 -1 1 0 0 Z " fill="#2E3E5E" transform="translate(301,465)"/>
<path d="M0 0 C0.33 0 0.66 0 1 0 C1.06 1.2 1.12 2.41 1.18 3.65 C1.27 5.22 1.35 6.8 1.44 8.38 C1.46 8.77 1.46 8.77 1.56 10.78 C1.89 16.77 1.89 16.77 3 19 C2.56 21.12 2.56 21.12 2 23 C3.32 23.33 4.64 23.66 6 24 C5.34 24.33 4.68 24.66 4 25 C2.68 24.34 1.36 23.68 0 23 C0 15.41 0 7.82 0 0 Z " fill="#EFC749" transform="translate(196,516)"/>
<path d="M0 0 C2.31 0 4.62 0 7 0 C3.68 2.8 0.3 4.19 -3.75 5.69 C-4.92 6.12 -6.09 6.56 -7.3 7.01 C-7.74 7.17 -7.74 7.17 -10 8 C-10 7.34 -10 6.68 -10 6 C-9.01 6 -8.02 6 -7 6 C-7 5.34 -7 4.68 -7 4 C-4.69 3.34 -2.38 2.68 0 2 C0 1.34 0 0.68 0 0 Z " fill="#DDEEFB" transform="translate(491,219)"/>
<path d="M0 0 C2.96 1.7 4.53 3.67 6.5 6.44 C5.08 5.98 3.67 5.52 2.25 5.06 C1.46 4.81 0.67 4.55 -0.14 4.29 C-2.37 3.49 -4.41 2.54 -6.5 1.44 C-4.01 -0.22 -2.97 -0.67 0 0 Z " fill="#343F58" transform="translate(312.5,472.5625)"/>
<path d="M0 0 C0.66 0.33 1.32 0.66 2 1 C-1.62 4 -1.62 4 -5 4 C-5.66 5.32 -6.32 6.64 -7 8 C-7.66 8 -8.32 8 -9 8 C-9 7.34 -9 6.68 -9 6 C-9.66 5.67 -10.32 5.34 -11 5 C-9.21 4.14 -7.42 3.28 -5.62 2.44 C-4.63 1.96 -3.63 1.49 -2.6 1 C-1.74 0.67 -0.88 0.34 0 0 Z " fill="#B8902A" transform="translate(726,470)"/>
<path d="M0 0 C0.4 0.01 0.4 0.01 2.44 0.06 C-0.75 2.7 -3.98 4.21 -7.81 5.75 C-8.89 6.19 -9.97 6.62 -11.08 7.07 C-11.9 7.4 -12.72 7.73 -13.56 8.06 C-12.59 5.58 -12.05 4.32 -9.65 3.05 C-8.94 2.83 -8.23 2.6 -7.5 2.38 C-0.18 0 -0.18 0 0 0 Z " fill="#DCEFFC" transform="translate(455.5625,236.9375)"/>
<path d="M0 0 C3.86 -0.22 6.49 0.4 10 2 C10 2.66 10 3.32 10 4 C11.65 4.33 13.3 4.66 15 5 C15 5.66 15 6.32 15 7 C9.8 5.4 4.93 3.26 0 1 C0 0.67 0 0.34 0 0 Z " fill="#CC9C1F" transform="translate(317,527)"/>
<path d="M0 0 C2.31 0 4.62 0 7 0 C5.04 1.96 3.51 2.89 1.06 4.12 C0.37 4.48 -0.32 4.83 -1.03 5.2 C-3 6 -3 6 -6 6 C-6 5.34 -6 4.68 -6 4 C-4.02 3.34 -2.04 2.68 0 2 C0 1.34 0 0.68 0 0 Z " fill="#392F2A" transform="translate(651,501)"/>
<path d="M0 0 C0.99 0.99 1.98 1.98 3 3 C2.67 3.5 2.67 3.5 1 6 C0.01 6 -0.98 6 -2 6 C-2 5.34 -2 4.68 -2 4 C-2.99 3.67 -3.98 3.34 -5 3 C-2 1 -2 1 0 0 Z " fill="#254A8E" transform="translate(203,353)"/>
<path d="M0 0 C1.85 0.34 1.85 0.34 4.06 0.94 C4.43 1.03 4.43 1.03 6.29 1.53 C6.57 1.61 6.57 1.61 8 2 C5.38 4.15 3.36 5.4 0 6 C-0.38 4.34 -0.71 2.68 -1 1 C-0.67 0.67 -0.34 0.34 0 0 Z " fill="#CCA649" transform="translate(623,627)"/>
<path d="M0 0 C-3.76 3.43 -8.23 4.56 -13 6 C-13 5.34 -13 4.68 -13 4 C-4.74 -0.59 -4.74 -0.59 0 0 Z " fill="#DCEEFC" transform="translate(370,277)"/>
<path d="M0 0 C-1 3 -1 3 -3.29 4.17 C-4.2 4.5 -5.12 4.84 -6.06 5.19 C-6.52 5.36 -6.52 5.36 -8.85 6.23 C-9.56 6.48 -10.27 6.74 -11 7 C-9.89 3.66 -9.54 3.42 -6.62 1.81 C-6.02 1.47 -5.41 1.12 -4.79 0.77 C-3 0 -3 0 0 0 Z " fill="#253058" transform="translate(825,423)"/>
<path d="M0 0 C2.64 0 5.28 0 8 0 C5.74 2.26 4 2.98 1 4 C0.01 4 -0.98 4 -2 4 C-1.34 2.68 -0.68 1.36 0 0 Z " fill="#2D2C36" transform="translate(589,529)"/>
<path d="M0 0 C-0.33 0.5 -0.33 0.5 -2 3 C-1.34 3 -0.68 3 0 3 C0 3.66 0 4.32 0 5 C-5.75 3.25 -5.75 3.25 -8 1 C-3.38 -1.12 -3.38 -1.12 0 0 Z " fill="#394457" transform="translate(479,548)"/>
<path d="M0 0 C2.64 0.99 5.28 1.98 8 3 C6.35 4.65 4.7 6.3 3 8 C1.88 4.25 1.88 4.25 3 2 C2.01 2 1.02 2 0 2 C0 1.34 0 0.68 0 0 Z " fill="#BA9337" transform="translate(372,504)"/>
<path d="M0 0 C0.33 1.65 0.66 3.3 1 5 C-1.97 4.01 -4.94 3.02 -8 2 C-8 1.67 -8 1.34 -8 1 C-5.24 0.4 -2.84 0 0 0 Z " fill="#364055" transform="translate(287,460)"/>
<path d="M0 0 C0 1.32 0 2.64 0 4 C-2.97 3.01 -5.94 2.02 -9 1 C-4.82 -1.09 -4.2 -1.17 0 0 Z " fill="#2F3F5C" transform="translate(419,521)"/>
<path d="M0 0 C2 3.75 2 3.75 2 6 C-3.75 4.25 -3.75 4.25 -6 2 C-4.02 1.34 -2.04 0.68 0 0 Z " fill="#E3BD51" transform="translate(456,653)"/>
<path d="M0 0 C0.66 0.66 1.32 1.32 2 2 C1.67 2.66 1.34 3.32 1 4 C1.66 4 2.32 4 3 4 C3 4.66 3 5.32 3 6 C-2.75 4.25 -2.75 4.25 -5 2 C-3.35 1.34 -1.7 0.68 0 0 Z " fill="#E4BF58" transform="translate(311,587)"/>
<path d="M0 0 C-0.66 0 -1.32 0 -2 0 C-2 0.66 -2 1.32 -2 2 C-1.34 2 -0.68 2 0 2 C0 2.66 0 3.32 0 4 C-5.75 2.25 -5.75 2.25 -8 0 C-4.95 -0.98 -3.05 -0.98 0 0 Z " fill="#E2BE57" transform="translate(262,565)"/>
<path d="M0 0 C2.31 0.33 4.62 0.66 7 1 C4.31 3.69 1.62 4.06 -2 5 C-2 4.34 -2 3.68 -2 3 C-1.34 3 -0.68 3 0 3 C0 2.01 0 1.02 0 0 Z " fill="#C9A959" transform="translate(786,554)"/>
<path d="M0 0 C2.64 0 5.28 0 8 0 C8.33 1.32 8.66 2.64 9 4 C6.03 3.01 3.06 2.02 0 1 C0 0.67 0 0.34 0 0 Z " fill="#363F55" transform="translate(462,545)"/>
<path d="M0 0 C0.33 0.66 0.66 1.32 1 2 C1.99 2.33 2.98 2.66 4 3 C4 3.66 4 4.32 4 5 C1.03 4.01 -1.94 3.02 -5 2 C-5 1.67 -5 1.34 -5 1 C-3.35 0.67 -1.7 0.34 0 0 Z " fill="#3B444D" transform="translate(406,516)"/>
<path d="M0 0 C0.66 0.66 1.32 1.32 2 2 C1.67 2.66 1.34 3.32 1 4 C1.99 4.33 2.98 4.66 4 5 C3.67 5.17 3.67 5.17 2 6 C-0.36 5.06 -2.7 4.07 -5 3 C-4.36 2.69 -3.72 2.38 -3.06 2.06 C-1 1 -1 1 0 0 Z " fill="#364055" transform="translate(367,497)"/>
<path d="M0 0 C0 0.99 0 1.98 0 3 C-2.64 2.01 -5.28 1.02 -8 0 C-8 -0.33 -8 -0.66 -8 -1 C-3.38 -2.25 -3.38 -2.25 0 0 Z " fill="#323D56" transform="translate(261,450)"/>
<path d="M0 0 C-1.49 0.5 -1.49 0.5 -9 3 C-8 0 -8 0 -6.19 -1.31 C-4 -2 -4 -2 0 0 Z " fill="#DEEEFA" transform="translate(441,246)"/>
<path d="M0 0 C0.99 1.32 1.98 2.64 3 4 C2.67 4.16 2.67 4.16 1 5 C-1.36 4.06 -3.7 3.07 -6 2 C-6 1.67 -6 1.34 -6 1 C-4.02 0.67 -2.04 0.34 0 0 Z " fill="#41464D" transform="translate(490,554)"/>
<path d="M0 0 C0.29 0.11 0.29 0.11 1.75 0.69 C0.56 2.25 0.56 2.25 -1.25 3.69 C-3.94 3.38 -3.94 3.38 -6.25 2.69 C-2.8 -0.39 -2.8 -0.39 0 0 Z " fill="#B48B28" transform="translate(616.25,521.3125)"/>
<path d="M0 0 C2.31 0 4.62 0 7 0 C7.33 1.32 7.66 2.64 8 4 C2.25 2.25 2.25 2.25 0 0 Z " fill="#384252" transform="translate(380,507)"/>
<path d="M0 0 C2.31 0 4.62 0 7 0 C4.31 2.69 1.62 3.06 -2 4 C-2 3.34 -2 2.68 -2 2 C-1.34 2 -0.68 2 0 2 C0 1.34 0 0.68 0 0 Z " fill="#363029" transform="translate(717,471)"/>
<path d="M0 0 C0.33 0.99 0.66 1.98 1 3 C-2 5 -2 5 -5.19 4.62 C-6.12 4.42 -7.04 4.21 -8 4 C-8 3.67 -8 3.34 -8 3 C-6.87 2.69 -5.73 2.38 -4.56 2.06 C-1 1 -1 1 0 0 Z " fill="#283B65" transform="translate(270,450)"/>
<path d="M0 0 C0.37 0.11 0.37 0.11 2.25 0.69 C-0.74 2.68 -3.35 3.63 -6.75 4.69 C-6.75 2.69 -6.75 2.69 -5.06 1 C-2.75 -0.31 -2.75 -0.31 0 0 Z " fill="#C7A44D" transform="translate(576.75,652.3125)"/>
<path d="M0 0 C-0.66 1.65 -1.32 3.3 -2 5 C-2.99 5 -3.98 5 -5 5 C-5.33 4.01 -5.66 3.02 -6 2 C-2.25 0 -2.25 0 0 0 Z " fill="#2F4E91" transform="translate(264,326)"/>
<path d="M0 0 C-3.13 2.64 -6.09 3.84 -10 5 C-9 2 -9 2 -7.25 0.81 C-4.7 -0.11 -2.69 -0.15 0 0 Z " fill="#DBEDFB" transform="translate(291,313)"/>
<path d="M0 0 C2.64 0 5.28 0 8 0 C5.33 1.78 2.97 2.88 0 4 C0 2.67 0 1.33 0 0 Z " fill="#E1F1FC" transform="translate(420,251)"/>
</svg>
