<?xml version="1.0" encoding="UTF-8"?>
<!-- Generator: visioncortex VTracer 0.6.5 -->
<svg version="1.1" xmlns="http://www.w3.org/2000/svg" width="1024" height="1024">
<path d="M0 0 C337.92 0 675.84 0 1024 0 C1024 337.92 1024 675.84 1024 1024 C686.08 1024 348.16 1024 0 1024 C0 686.08 0 348.16 0 0 Z " fill="#F8F8F8" transform="translate(0,0)"/>
<path d="M0 0 C34.75 0 34.75 0 48.69 2.25 C50.23 2.48 51.77 2.72 53.31 2.95 C57.55 3.6 61.77 4.29 66 5 C67 5.17 68 5.33 69.04 5.5 C98.86 10.58 128.62 22.8 154.44 38.44 C155.07 38.82 155.71 39.2 156.36 39.59 C157.69 40.42 158.99 41.28 160.26 42.18 C162.45 43.63 164.61 44.89 166.89 46.16 C177.59 52.52 177.59 52.52 179.92 58.26 C181.36 64.8 181.01 71.46 180.82 78.11 C180.81 80.34 180.81 82.57 180.82 84.79 C180.83 90.82 180.73 96.83 180.62 102.85 C180.52 109.15 180.51 115.46 180.49 121.76 C180.45 132.33 180.35 142.89 180.21 153.46 C180.06 164.34 179.95 175.22 179.88 186.1 C179.87 186.77 179.87 187.45 179.87 188.14 C179.85 191.51 179.83 194.88 179.81 198.25 C179.64 226.17 179.36 254.08 179 282 C175.63 280.7 172.82 279.34 169.88 277.25 C153.75 266.22 134.71 256.97 116.21 250.75 C113.66 249.89 111.13 248.98 108.6 248.08 C88.17 240.9 67.53 236.3 46.12 233.19 C45.43 233.08 44.73 232.98 44.01 232.87 C29.3 230.68 15.01 230.54 0 230 C0 154.1 0 78.2 0 0 Z " fill="#123566" transform="translate(326,221)"/>
<path d="M0 0 C0 75.57 0 151.14 0 229 C-5.44 229.33 -5.44 229.33 -33 231 C-83.24 236.89 -132.76 251.4 -174.67 280.53 C-177 282 -177 282 -179 282 C-179.39 253.29 -179.69 224.57 -179.87 195.86 C-179.89 192.46 -179.91 189.07 -179.93 185.67 C-179.94 185 -179.94 184.32 -179.95 183.63 C-180.02 172.7 -180.16 161.78 -180.31 150.86 C-180.47 139.64 -180.56 128.42 -180.6 117.2 C-180.62 110.9 -180.67 104.61 -180.8 98.31 C-180.91 92.37 -180.95 86.45 -180.92 80.51 C-180.93 78.34 -180.96 76.17 -181.03 73.99 C-181.48 58.03 -181.48 58.03 -177.32 52.95 C-173.28 49.27 -168.8 46.54 -163.97 44.03 C-161.55 42.76 -159.28 41.31 -156.99 39.81 C-155.63 39.01 -154.25 38.22 -152.88 37.44 C-152.11 37 -151.34 36.56 -150.55 36.11 C-137.27 28.66 -123.44 21.74 -108.94 17 C-106 16 -106 16 -102.91 14.59 C-97.64 12.29 -92.05 10.99 -86.5 9.56 C-85.31 9.26 -84.12 8.95 -82.9 8.63 C-55.26 1.68 -28.85 0 0 0 Z " fill="#113566" transform="translate(699,221)"/>
<path d="M0 0 C14.08 6.01 27.98 12.29 41.81 18.85 C53.14 24.22 64.53 29.44 76.01 34.49 C82.05 37.16 87.99 39.96 93.88 42.94 C100.96 46.52 108.12 49.85 115.37 53.1 C127.78 58.67 140.13 64.37 152.44 70.19 C155.3 71.54 158.16 72.89 161.02 74.24 C161.7 74.56 162.39 74.89 163.1 75.22 C172.46 79.64 181.86 83.95 191.25 88.28 C196.49 90.68 201.72 93.1 206.95 95.52 C211.2 97.48 215.45 99.44 219.7 101.4 C221.35 102.16 223.01 102.92 224.66 103.69 C225.46 104.06 226.27 104.43 227.1 104.81 C231.35 106.77 235.6 108.74 239.85 110.73 C241.56 111.53 243.27 112.33 244.98 113.12 C246.96 114.05 248.94 114.98 250.92 115.92 C251.78 116.32 252.65 116.72 253.54 117.13 C253.9 117.3 253.9 117.3 255.73 118.16 C260.18 119.81 262.91 120.38 267.48 118.79 C268.77 118.18 270.05 117.55 271.32 116.91 C272.01 116.58 272.7 116.25 273.42 115.91 C275.66 114.83 277.89 113.73 280.12 112.62 C281.68 111.87 283.23 111.12 284.79 110.38 C287.84 108.91 290.89 107.43 293.94 105.96 C298.71 103.65 303.53 101.46 308.38 99.31 C317.07 95.44 325.7 91.44 334.32 87.43 C344.7 82.6 355.1 77.8 365.5 73 C378.07 67.2 390.64 61.39 403.2 55.55 C411.87 51.52 420.55 47.51 429.23 43.51 C434.72 40.98 440.21 38.44 445.69 35.89 C459.88 29.28 474.11 22.74 488.37 16.29 C496.14 12.77 503.87 9.2 511.59 5.57 C512.71 5.05 513.84 4.54 515 4 C515.62 3.71 516.24 3.43 516.88 3.13 C519.77 1.84 521.8 1 525 1 C525 16.84 525 32.68 525 49 C519.06 51.64 513.12 54.28 507 57 C499.85 60.55 499.85 60.55 496.45 62.28 C490.85 65.07 485.15 67.63 479.44 70.19 C475.83 71.82 472.22 73.46 468.61 75.09 C467.89 75.42 467.16 75.75 466.41 76.09 C459.44 79.25 452.5 82.46 445.56 85.69 C444.99 85.95 444.99 85.95 442.1 87.3 C439.83 88.35 437.57 89.41 435.3 90.46 C419.21 97.95 403.07 105.34 386.9 112.67 C378.32 116.56 369.76 120.5 361.27 124.57 C356.36 126.92 351.42 129.18 346.46 131.41 C345.78 131.71 345.1 132.02 344.41 132.33 C341.03 133.85 337.66 135.36 334.28 136.87 C326.79 140.22 319.42 143.75 312.09 147.46 C308.36 149.32 304.58 151.03 300.75 152.69 C291.66 156.66 282.67 160.84 273.68 165.05 C272.61 165.55 271.55 166.05 270.45 166.56 C269.49 167.01 268.54 167.45 267.56 167.91 C261.9 170.32 261.9 170.32 258.13 168.97 C257.02 168.44 255.91 167.9 254.77 167.34 C254.16 167.05 253.54 166.76 252.91 166.45 C251.57 165.82 250.24 165.17 248.91 164.52 C246.05 163.13 243.17 161.76 240.3 160.38 C238.79 159.67 237.29 158.95 235.79 158.23 C228.03 154.52 220.21 150.97 212.38 147.44 C200.28 141.97 188.23 136.41 176.22 130.74 C170.38 128 164.53 125.34 158.6 122.83 C153.84 120.81 149.21 118.69 144.62 116.31 C134.95 111.38 125.05 106.93 115.16 102.44 C112 101 108.84 99.55 105.69 98.1 C96.99 94.09 88.3 90.1 79.5 86.31 C74.45 84.14 69.52 81.81 64.62 79.31 C53.25 73.53 41.6 68.31 30 63 C26.64 61.46 23.28 59.92 19.92 58.39 C17.86 57.44 15.8 56.5 13.74 55.57 C13.28 55.35 13.28 55.35 10.92 54.28 C10.11 53.91 9.3 53.54 8.47 53.16 C5.62 51.82 2.81 50.41 0 49 C0 32.83 0 16.66 0 0 Z " fill="#1A5FC5" transform="translate(250,498)"/>
<path d="M0 0 C10.12 3.37 10.12 3.37 14.94 5.75 C16.01 6.27 17.07 6.79 18.17 7.32 C19.29 7.88 20.41 8.43 21.56 9 C24 10.19 26.43 11.37 28.87 12.55 C29.48 12.85 30.09 13.15 30.72 13.45 C36.15 16.09 41.63 18.62 47.12 21.12 C57.92 26.04 68.68 31.01 79.44 36 C81.21 36.82 82.98 37.64 84.75 38.47 C88.37 40.14 91.98 41.82 95.59 43.49 C177.34 81.41 177.34 81.41 194.83 89.23 C200.57 91.8 206.27 94.45 211.96 97.12 C215.98 99 220.03 100.82 224.07 102.64 C232.4 106.4 240.68 110.23 248.81 114.4 C250.54 115.28 252.27 116.14 254 117 C254.61 117.3 255.22 117.61 255.85 117.92 C259.45 119.61 261.27 120.29 265 119 C267.33 118.01 269.64 117 271.94 115.94 C272.62 115.63 273.29 115.32 273.99 115.01 C276.18 114.01 278.37 113 280.56 112 C282.08 111.31 283.59 110.62 285.1 109.93 C293.6 106.05 302.07 102.11 310.5 98.08 C316.89 95.03 323.34 92.13 329.8 89.24 C338.43 85.37 347 81.38 355.54 77.32 C365.44 72.62 375.4 68.08 385.38 63.56 C394.94 59.23 404.48 54.88 413.95 50.35 C420.93 47.02 427.93 43.76 434.94 40.5 C435.54 40.22 436.14 39.94 436.76 39.65 C445.23 35.72 453.73 31.85 462.25 28.03 C470.86 24.18 479.4 20.18 487.93 16.14 C496.24 12.21 504.58 8.33 512.94 4.5 C513.42 4.28 513.42 4.28 515.87 3.15 C516.76 2.74 517.66 2.33 518.59 1.91 C519.39 1.54 520.2 1.17 521.02 0.79 C523 0 523 0 525 0 C525 15.84 525 31.68 525 48 C502.51 58.49 480 68.93 457.47 79.32 C449.92 82.8 442.38 86.28 434.85 89.79 C434.22 90.08 433.6 90.37 432.96 90.67 C431.16 91.51 429.36 92.35 427.56 93.19 C419.83 96.79 412.07 100.32 404.23 103.69 C400.25 105.42 396.37 107.28 392.5 109.25 C383.18 113.98 373.65 118.24 364.14 122.57 C359.18 124.83 354.21 127.1 349.25 129.38 C348.76 129.6 348.76 129.6 346.3 130.72 C331.26 137.63 316.24 144.61 301.25 151.62 C293.62 155.19 285.96 158.69 278.3 162.18 C277.8 162.41 277.8 162.41 275.31 163.55 C274.38 163.97 273.44 164.39 272.48 164.83 C270.48 165.77 268.53 166.82 266.6 167.89 C262.94 169.45 260.46 168.57 256.83 167.16 C256.46 166.99 256.46 166.99 254.61 166.14 C253.77 165.75 252.93 165.36 252.06 164.97 C251.15 164.54 250.25 164.12 249.31 163.69 C248.35 163.24 247.39 162.8 246.4 162.35 C243.26 160.9 240.13 159.45 237 158 C234.89 157.03 232.79 156.06 230.68 155.09 C225.22 152.57 219.76 150.05 214.31 147.53 C211.06 146.03 207.81 144.53 204.55 143.03 C183.94 133.52 163.35 123.99 142.8 114.34 C124.59 105.79 106.31 97.37 87.95 89.13 C79.4 85.29 70.92 81.34 62.46 77.32 C55.38 73.96 48.28 70.66 41.14 67.44 C40.79 67.28 40.79 67.28 39 66.46 C35.42 64.85 31.85 63.24 28.28 61.63 C26.91 61.01 25.55 60.4 24.18 59.78 C22.99 59.25 21.8 58.71 20.58 58.16 C13.66 54.9 6.84 51.42 0 48 C0 32.16 0 16.32 0 0 Z " fill="#123667" transform="translate(250,641)"/>
<path d="M0 0 C4.32 1.44 8.06 2.88 12.12 4.81 C13.46 5.44 14.79 6.07 16.12 6.7 C16.5 6.88 16.5 6.88 18.43 7.79 C23.65 10.25 28.89 12.69 34.12 15.12 C35.31 15.68 36.5 16.23 37.73 16.8 C47.79 21.47 57.91 26.02 68.06 30.51 C74.48 33.37 80.8 36.36 87.07 39.54 C91.94 41.97 96.87 44.23 101.81 46.5 C102.91 47.01 104.01 47.51 105.14 48.03 C111.44 50.93 117.76 53.8 124.09 56.64 C124.77 56.95 125.45 57.26 126.15 57.57 C129.45 59.06 132.76 60.54 136.07 62.02 C142.09 64.71 148.05 67.5 153.95 70.47 C160.73 73.9 167.62 77.07 174.55 80.19 C178.18 81.83 181.81 83.47 185.44 85.11 C186.17 85.44 186.9 85.77 187.65 86.12 C194.33 89.14 200.98 92.22 207.62 95.31 C208.71 95.82 209.8 96.32 210.93 96.84 C217.15 99.73 223.36 102.64 229.56 105.58 C233.13 107.27 236.7 108.95 240.28 110.62 C242.04 111.45 243.8 112.29 245.56 113.13 C248.02 114.3 250.49 115.46 252.96 116.62 C253.7 116.97 254.44 117.33 255.2 117.7 C259.2 119.55 261.78 120.54 266 119 C268.73 117.8 271.39 116.56 274.06 115.25 C275.77 114.43 277.48 113.6 279.2 112.78 C280.13 112.33 281.05 111.89 282.01 111.43 C287.47 108.82 292.95 106.29 298.44 103.75 C300.24 102.91 302.05 102.08 303.85 101.24 C305.07 100.68 306.29 100.11 307.51 99.54 C311.71 97.6 315.91 95.65 320.11 93.7 C332.47 87.95 344.84 82.23 357.22 76.52 C365.11 72.88 372.99 69.22 380.88 65.56 C382.03 65.03 383.19 64.49 384.38 63.94 C389.76 61.44 395.14 58.94 400.52 56.43 C411.97 51.09 423.42 45.77 434.98 40.67 C443.54 36.89 452.01 32.92 460.44 28.87 C472.95 22.86 485.55 17.07 498.19 11.35 C498.86 11.05 499.54 10.74 500.24 10.43 C501.57 9.82 502.9 9.22 504.23 8.62 C507.44 7.17 510.63 5.71 513.82 4.21 C514.99 3.66 516.17 3.11 517.38 2.55 C518.41 2.06 519.45 1.56 520.52 1.06 C523 0 523 0 525 0 C525 15.84 525 31.68 525 48 C520.71 49.98 516.42 51.96 512 54 C507.65 56.02 503.29 58.04 498.94 60.06 C497.72 60.63 496.5 61.19 495.28 61.76 C489.18 64.59 483.08 67.43 476.98 70.28 C467.44 74.73 457.9 79.17 448.29 83.46 C447.96 83.6 447.96 83.6 446.34 84.33 C443.27 85.7 440.19 87.07 437.12 88.42 C430.09 91.54 423.2 94.87 416.34 98.33 C411.49 100.75 406.57 103.01 401.62 105.25 C399.53 106.2 397.44 107.16 395.34 108.11 C394.82 108.35 394.82 108.35 392.15 109.56 C387.14 111.85 382.13 114.14 377.12 116.44 C376.14 116.89 375.15 117.34 374.13 117.81 C359.82 124.37 345.51 130.95 331.25 137.62 C328.63 138.85 326 140.08 323.38 141.31 C323.05 141.46 323.05 141.46 321.43 142.22 C314.32 145.55 307.21 148.84 300 151.94 C295.16 154.02 290.44 156.23 285.75 158.62 C280.4 161.35 275 163.75 269.43 165.96 C267 167 267 167 264 169 C260.41 168.63 257.43 167.44 254.18 165.92 C253.24 165.49 252.31 165.06 251.35 164.61 C250.35 164.14 249.35 163.67 248.31 163.19 C247.26 162.7 246.2 162.21 245.12 161.71 C242.88 160.67 240.64 159.63 238.4 158.58 C234.02 156.54 229.63 154.52 225.24 152.49 C221.99 150.99 218.73 149.49 215.48 147.99 C208.09 144.58 200.69 141.19 193.28 137.8 C187.84 135.31 182.41 132.8 177 130.25 C172.06 127.93 167.08 125.72 162.06 123.56 C156.79 121.28 151.62 118.86 146.5 116.25 C137.96 111.9 129.25 107.95 120.53 103.98 C113.76 100.89 107 97.76 100.25 94.62 C99.08 94.08 97.91 93.54 96.7 92.98 C94.32 91.87 91.94 90.76 89.56 89.65 C86.06 88.03 82.56 86.4 79.05 84.78 C59.66 75.78 59.66 75.78 50.27 71.39 C47.68 70.17 45.09 68.96 42.5 67.75 C41.87 67.45 41.24 67.16 40.59 66.86 C31.86 62.77 23.1 58.74 14.29 54.84 C13.57 54.52 12.84 54.2 12.1 53.87 C11.5 53.6 10.89 53.33 10.27 53.06 C6.81 51.45 3.41 49.71 0 48 C0 32.16 0 16.32 0 0 Z " fill="#114790" transform="translate(250,570)"/>
<path d="M0 0 C9.9 0 19.8 0 30 0 C30 77.88 30 155.76 30 236 C3.93 236 -22.14 236 -49 236 C-88.18 238.53 -126.15 243.72 -164 254 C-164.55 254.15 -164.55 254.15 -167.3 254.9 C-177.61 257.71 -187.89 260.54 -198 264 C-183.98 248.95 -160.91 238.38 -142.06 230.83 C-139.78 229.91 -137.51 228.96 -135.24 228.02 C-117.82 220.8 -100.3 215.51 -81.85 211.61 C-79.82 211.18 -77.79 210.72 -75.76 210.25 C-67.08 208.28 -58.49 207.11 -49.62 206.31 C-49 206.25 -49 206.25 -45.86 205.92 C-30.48 204.5 -15.63 205 0 205 C0 137.35 0 69.7 0 0 Z " fill="#143767" transform="translate(715,261)"/>
<path d="M0 0 C9.9 0 19.8 0 30 0 C30 67.65 30 135.3 30 205 C40.56 205 51.12 205 62 205 C77.82 206.3 93.47 207.69 109 211 C109.83 211.17 110.67 211.35 111.53 211.52 C128.19 215 144.25 219.54 160 226 C160.39 226.16 160.39 226.16 162.39 226.97 C182.33 235.11 201.37 244.58 219 257 C220.81 258.21 222.62 259.42 224.44 260.62 C225.62 261.42 226.81 262.21 228 263 C226 264 226 264 224.09 263.57 C223.7 263.44 223.7 263.44 221.73 262.78 C220.85 262.49 219.97 262.2 219.07 261.9 C218.12 261.58 217.17 261.27 216.19 260.94 C214.17 260.28 212.15 259.63 210.13 258.97 C209.11 258.64 208.08 258.31 207.02 257.97 C139.01 236.23 71.37 236 0 236 C0 158.12 0 80.24 0 0 Z " fill="#133667" transform="translate(280,261)"/>
<path d="M0 0 C0.83 0.01 1.67 0.01 2.52 0.02 C3.33 0.02 4.14 0.02 4.98 0.02 C6.01 0.03 7.05 0.04 8.11 0.05 C11.39 0.07 14.67 0.09 18.05 0.11 C18.05 7.37 18.05 14.63 18.05 22.11 C14.75 22.28 14.75 22.28 -1.95 23.11 C-2.28 30.04 -2.61 36.97 -2.95 44.11 C-6.58 44.28 -6.58 44.28 -24.95 45.11 C-24.97 41.69 -24.99 38.27 -25.01 34.74 C-25.02 33.66 -25.03 32.58 -25.04 31.47 C-25.04 30.62 -25.04 29.78 -25.05 28.9 C-25.05 28.03 -25.06 27.16 -25.06 26.27 C-24.95 24.11 -24.95 24.11 -23.95 22.11 C-17.02 22.11 -10.09 22.11 -2.95 22.11 C-3.01 11.68 -3.01 11.68 -3.04 8.38 C-3.04 7.53 -3.04 6.68 -3.05 5.8 C-3.05 5.37 -3.05 5.37 -3.06 3.15 C-2.91 0.45 -2.71 0.16 0 0 Z " fill="#F2F2F1" transform="translate(169.949462890625,60.886474609375)"/>
<path d="M0 0 C6.93 0 13.86 0 21 0 C21.03 3.65 21.05 7.29 21.06 10.94 C21.07 11.98 21.08 13.02 21.09 14.09 C21.09 15.08 21.09 16.07 21.1 17.09 C21.1 18.01 21.11 18.92 21.11 19.87 C21 22 21 22 20 23 C18.51 23.09 17.02 23.11 15.53 23.1 C14.72 23.1 13.91 23.09 13.07 23.09 C12.04 23.08 11 23.07 9.94 23.06 C6.66 23.04 3.38 23.02 0 23 C0 30.26 0 37.52 0 45 C-6.93 45 -13.86 45 -21 45 C-21.02 41.56 -21.04 38.11 -21.06 34.56 C-21.07 33.48 -21.08 32.39 -21.09 31.27 C-21.09 30.42 -21.1 29.57 -21.1 28.69 C-21.1 27.82 -21.11 26.94 -21.11 26.04 C-21 24 -21 24 -20 23 C-18.59 22.84 -17.17 22.75 -15.75 22.68 C-14.98 22.65 -14.21 22.61 -13.42 22.57 C-12.43 22.53 -11.45 22.48 -10.44 22.44 C-7.32 22.29 -4.21 22.15 -1 22 C-0.67 14.74 -0.34 7.48 0 0 Z " fill="#F2F2F2" transform="translate(188,662)"/>
<path d="M0 0 C6.93 0 13.86 0 21 0 C21 7.26 21 14.52 21 22 C17.7 22.16 17.7 22.16 1 23 C0.67 29.93 0.34 36.86 0 44 C-6.93 44 -13.86 44 -21 44 C-21 36.74 -21 29.48 -21 22 C-14.07 22 -7.14 22 0 22 C0 14.74 0 7.48 0 0 Z " fill="#F2F2F2" transform="translate(678,105)"/>
<path d="M0 0 C6.93 0 13.86 0 21 0 C21.16 3.47 21.16 3.47 22 21 C28.6 21.33 35.2 21.66 42 22 C42.19 25.48 42.38 28.96 42.56 32.44 C42.59 32.93 42.59 32.93 42.73 35.45 C42.78 36.39 42.83 37.34 42.88 38.31 C42.93 39.18 42.97 40.06 43.02 40.96 C43 43 43 43 42 44 C40.52 44.1 39.04 44.13 37.56 44.13 C37.12 44.13 37.12 44.13 34.85 44.14 C33.91 44.13 32.97 44.13 32 44.12 C31.53 44.13 31.53 44.13 29.15 44.14 C28.25 44.14 27.36 44.13 26.44 44.13 C25.61 44.13 24.78 44.13 23.93 44.13 C22 44 22 44 21 43 C20.91 41.44 20.89 39.87 20.9 38.31 C20.9 37.46 20.91 36.61 20.91 35.73 C20.92 34.64 20.93 33.56 20.94 32.44 C20.96 28.99 20.98 25.55 21 22 C14.07 22 7.14 22 0 22 C0 14.74 0 7.48 0 0 Z " fill="#F1F1F1" transform="translate(922,61)"/>
<path d="M0 0 C7.26 0.33 14.52 0.66 22 1 C22.01 2.72 22.01 2.72 22.06 11.44 C22.07 12.52 22.08 13.61 22.09 14.73 C22.09 15.58 22.1 16.43 22.1 17.31 C22.1 17.75 22.1 17.75 22.11 19.96 C22 22 22 22 21 23 C19.44 23.09 17.87 23.11 16.31 23.1 C15.46 23.1 14.61 23.09 13.73 23.09 C12.64 23.08 11.56 23.07 10.44 23.06 C6.99 23.04 3.55 23.02 0 23 C0 15.41 0 7.82 0 0 Z " fill="#F2F2F2" transform="translate(827,347)"/>
<path d="M0 0 C0.83 0.01 1.67 0.01 2.52 0.02 C3.33 0.02 4.14 0.02 4.98 0.02 C6.01 0.03 7.05 0.04 8.11 0.05 C11.39 0.07 14.67 0.09 18.05 0.11 C18.05 7.7 18.05 15.29 18.05 23.11 C10.79 23.11 3.53 23.11 -3.95 23.11 C-3.81 19.5 -3.66 15.89 -3.51 12.18 C-3.47 11.04 -3.43 9.9 -3.38 8.72 C-3.34 7.83 -3.31 6.94 -3.27 6.02 C-3.23 5.11 -3.19 4.19 -3.15 3.25 C-2.89 0.5 -2.76 0.16 0 0 Z " fill="#F2F2F2" transform="translate(808.949462890625,548.886474609375)"/>
<path d="M0 0 C6.93 0 13.86 0 21 0 C21 7.26 21 14.52 21 22 C13.74 22 6.48 22 -1 22 C-1.02 18.74 -1.04 15.48 -1.06 12.12 C-1.07 11.1 -1.08 10.07 -1.09 9.02 C-1.09 8.21 -1.1 7.4 -1.1 6.57 C-1.1 5.74 -1.11 4.92 -1.11 4.06 C-1 2 -1 2 0 0 Z " fill="#F1F2F1" transform="translate(82,61)"/>
<path d="M0 0 C0.83 0.01 1.67 0.01 2.52 0.02 C3.42 0.02 4.32 0.02 5.25 0.03 C5.72 0.03 5.72 0.03 8.11 0.05 C9.06 0.06 10.01 0.06 10.99 0.06 C13.34 0.08 15.7 0.09 18.05 0.11 C18.08 3.76 18.1 7.41 18.11 11.05 C18.12 12.09 18.13 13.13 18.14 14.21 C18.14 14.7 18.14 14.7 18.15 17.2 C18.15 17.66 18.15 17.66 18.16 19.98 C18.05 22.11 18.05 22.11 17.05 23.11 C15.65 23.21 14.24 23.24 12.83 23.25 C12.41 23.25 12.41 23.25 10.26 23.25 C9.81 23.25 9.81 23.25 7.55 23.24 C6.66 23.24 5.76 23.25 4.84 23.25 C3.99 23.25 3.14 23.25 2.27 23.25 C1.48 23.25 0.7 23.24 -0.11 23.24 C-1.95 23.11 -1.95 23.11 -2.95 22.11 C-3.05 20.56 -3.08 19.01 -3.08 17.46 C-3.08 16.52 -3.08 15.58 -3.09 14.61 C-3.08 13.62 -3.08 12.63 -3.07 11.61 C-3.08 10.62 -3.08 9.64 -3.09 8.62 C-3.08 7.68 -3.08 6.74 -3.08 5.77 C-3.08 4.9 -3.08 4.03 -3.08 3.14 C-2.91 0.44 -2.7 0.16 0 0 Z " fill="#F2F2F2" transform="translate(190.949462890625,369.886474609375)"/>
<path d="M0 0 C0.83 0.01 1.67 0.01 2.52 0.02 C3.33 0.02 4.14 0.02 4.98 0.02 C6.01 0.03 7.05 0.04 8.11 0.05 C11.39 0.07 14.67 0.09 18.05 0.11 C18.05 7.37 18.05 14.63 18.05 22.11 C13.48 23.03 9.35 23.23 4.74 23.18 C4 23.17 3.26 23.17 2.49 23.16 C0.68 23.15 -1.14 23.13 -2.95 23.11 C-2.98 19.47 -3 15.82 -3.01 12.18 C-3.02 11.14 -3.03 10.09 -3.04 9.02 C-3.04 8.53 -3.04 8.53 -3.05 6.02 C-3.05 5.11 -3.06 4.19 -3.06 3.25 C-2.92 0.48 -2.77 0.16 0 0 Z " fill="#F2F2F2" transform="translate(105.949462890625,706.886474609375)"/>
<path d="M0 0 C0.83 0.01 1.67 0.01 2.52 0.02 C3.33 0.02 4.14 0.02 4.98 0.02 C6.01 0.03 7.05 0.04 8.11 0.05 C11.39 0.07 14.67 0.09 18.05 0.11 C18.05 7.37 18.05 14.63 18.05 22.11 C14.59 22.44 14.59 22.44 -2.95 24.11 C-2.98 20.3 -3 16.49 -3.01 12.68 C-3.02 11.59 -3.03 10.5 -3.04 9.38 C-3.04 8.34 -3.04 7.31 -3.05 6.24 C-3.05 5.28 -3.06 4.33 -3.06 3.34 C-2.92 0.52 -2.82 0.16 0 0 Z " fill="#F2F2F1" transform="translate(945.949462890625,828.886474609375)"/>
<path d="M0 0 C1.25 2.5 1.03 4 0.88 6.79 C0.86 7.21 0.86 7.21 0.75 9.36 C0.69 10.44 0.63 11.51 0.56 12.62 C0.38 16.05 0.19 19.47 0 23 C-6.93 23 -13.86 23 -21 23 C-21 15.74 -21 8.48 -21 1 C-17.53 0.83 -17.53 0.83 0 0 Z " fill="#F2F2F2" transform="translate(145,481)"/>
<path d="M0 0 C6.93 0 13.86 0 21 0 C21 7.26 21 14.52 21 22 C14.07 22 7.14 22 0 22 C0 14.74 0 7.48 0 0 Z " fill="#F1F1F1" transform="translate(678,61)"/>
<path d="M0 0 C0.83 0.01 1.67 0.01 2.52 0.02 C3.33 0.02 4.14 0.02 4.98 0.02 C6.01 0.03 7.05 0.04 8.11 0.05 C11.39 0.07 14.67 0.09 18.05 0.11 C18.05 7.37 18.05 14.63 18.05 22.11 C11.12 22.11 4.19 22.11 -2.95 22.11 C-2.97 18.67 -2.99 15.22 -3.01 11.68 C-3.02 10.59 -3.03 9.5 -3.04 8.38 C-3.04 7.53 -3.04 6.68 -3.05 5.8 C-3.05 4.93 -3.06 4.06 -3.06 3.15 C-2.91 0.45 -2.71 0.16 0 0 Z " fill="#F2F2F2" transform="translate(254.949462890625,985.886474609375)"/>
<path d="M0 0 C0.83 0.01 1.67 0.01 2.52 0.02 C3.33 0.02 4.14 0.02 4.98 0.02 C6.01 0.03 7.05 0.04 8.11 0.05 C11.39 0.07 14.67 0.09 18.05 0.11 C18.05 7.37 18.05 14.63 18.05 22.11 C11.12 22.11 4.19 22.11 -2.95 22.11 C-2.97 18.67 -2.99 15.22 -3.01 11.68 C-3.02 10.59 -3.03 9.5 -3.04 8.38 C-3.04 7.53 -3.04 6.68 -3.05 5.8 C-3.05 4.93 -3.06 4.06 -3.06 3.15 C-2.91 0.45 -2.71 0.16 0 0 Z " fill="#F2F2F2" transform="translate(190.949462890625,985.886474609375)"/>
<path d="M0 0 C0.83 0.01 1.67 0.01 2.52 0.02 C3.33 0.02 4.14 0.02 4.98 0.02 C6.01 0.03 7.05 0.04 8.11 0.05 C11.39 0.07 14.67 0.09 18.05 0.11 C18.05 7.37 18.05 14.63 18.05 22.11 C11.12 22.11 4.19 22.11 -2.95 22.11 C-2.97 18.67 -2.99 15.22 -3.01 11.68 C-3.02 10.59 -3.03 9.5 -3.04 8.38 C-3.04 7.53 -3.04 6.68 -3.05 5.8 C-3.05 4.93 -3.06 4.06 -3.06 3.15 C-2.91 0.45 -2.71 0.16 0 0 Z " fill="#F2F2F2" transform="translate(105.949462890625,985.886474609375)"/>
<path d="M0 0 C0.83 0.01 1.67 0.01 2.52 0.02 C3.33 0.02 4.14 0.02 4.98 0.02 C6.01 0.03 7.05 0.04 8.11 0.05 C11.39 0.07 14.67 0.09 18.05 0.11 C18.05 7.37 18.05 14.63 18.05 22.11 C11.12 22.11 4.19 22.11 -2.95 22.11 C-2.97 18.67 -2.99 15.22 -3.01 11.68 C-3.02 10.59 -3.03 9.5 -3.04 8.38 C-3.04 7.53 -3.04 6.68 -3.05 5.8 C-3.05 4.93 -3.06 4.06 -3.06 3.15 C-2.91 0.45 -2.71 0.16 0 0 Z " fill="#F2F2F2" transform="translate(41.949462890625,481.886474609375)"/>
<path d="M0 0 C0.83 0.01 1.67 0.01 2.52 0.02 C3.33 0.02 4.14 0.02 4.98 0.02 C6.01 0.03 7.05 0.04 8.11 0.05 C11.39 0.07 14.67 0.09 18.05 0.11 C18.05 7.37 18.05 14.63 18.05 22.11 C11.12 22.11 4.19 22.11 -2.95 22.11 C-2.97 18.67 -2.99 15.22 -3.01 11.68 C-3.02 10.59 -3.03 9.5 -3.04 8.38 C-3.04 7.53 -3.04 6.68 -3.05 5.8 C-3.05 4.93 -3.06 4.06 -3.06 3.15 C-2.91 0.45 -2.71 0.16 0 0 Z " fill="#F2F2F2" transform="translate(190.949462890625,414.886474609375)"/>
<path d="M0 0 C3.28 -0.02 6.56 -0.04 9.94 -0.06 C10.97 -0.07 12.01 -0.08 13.07 -0.09 C13.48 -0.09 13.48 -0.09 15.53 -0.1 C15.94 -0.1 15.94 -0.1 18.05 -0.11 C20 0 20 0 21 1 C21.09 2.56 21.11 4.13 21.1 5.69 C21.1 6.54 21.09 7.39 21.09 8.27 C21.08 9.36 21.07 10.44 21.06 11.56 C21.04 15.01 21.02 18.45 21 22 C14.07 22 7.14 22 0 22 C0 14.74 0 7.48 0 0 Z " fill="#F1F1F1" transform="translate(188,237)"/>
<path d="M0 0 C0.83 0.01 1.67 0.01 2.52 0.02 C3.33 0.02 4.14 0.02 4.98 0.02 C6.01 0.03 7.05 0.04 8.11 0.05 C11.39 0.07 14.67 0.09 18.05 0.11 C18.05 7.37 18.05 14.63 18.05 22.11 C11.12 22.11 4.19 22.11 -2.95 22.11 C-2.97 18.67 -2.99 15.22 -3.01 11.68 C-3.02 10.59 -3.03 9.5 -3.04 8.38 C-3.04 7.53 -3.04 6.68 -3.05 5.8 C-3.05 4.93 -3.06 4.06 -3.06 3.15 C-2.91 0.45 -2.71 0.16 0 0 Z " fill="#F1F1F1" transform="translate(105.949462890625,236.886474609375)"/>
<path d="M0 0 C0.42 -0 0.42 -0 2.57 -0 C3.02 -0 3.02 -0 5.28 0.01 C6.17 0 7.07 0 7.99 -0 C8.84 -0 9.69 -0 10.56 0 C11.35 0 12.13 0 12.94 0 C14.78 0.13 14.78 0.13 15.78 1.13 C15.87 2.69 15.89 4.26 15.88 5.82 C15.88 6.67 15.87 7.52 15.87 8.4 C15.86 9.49 15.85 10.58 15.84 11.7 C15.82 15.14 15.8 18.58 15.78 22.13 C8.85 22.13 1.92 22.13 -5.22 22.13 C-5.24 18.69 -5.26 15.24 -5.28 11.7 C-5.29 10.61 -5.3 9.52 -5.31 8.4 C-5.31 7.55 -5.31 6.7 -5.32 5.82 C-5.32 4.95 -5.33 4.08 -5.33 3.17 C-5.12 -0.57 -3.28 0 0 0 Z " fill="#F1F1F1" transform="translate(991.21875,126.8671875)"/>
<path d="M0 0 C0.33 0 0.66 0 1 0 C1 67.65 1 135.3 1 205 C-11.54 205.33 -24.08 205.66 -37 206 C-37 205.34 -37 204.68 -37 204 C-36.49 203.99 -36.49 203.99 -33.89 203.92 C-30.11 203.83 -26.32 203.73 -22.53 203.63 C-20.89 203.58 -19.24 203.54 -17.6 203.5 C-15.25 203.45 -12.89 203.38 -10.54 203.32 C-10.17 203.31 -10.17 203.31 -8.3 203.27 C-3.11 203.11 -3.11 203.11 -2 202 C-1.89 199.56 -1.85 197.14 -1.85 194.7 C-1.84 193.93 -1.84 193.16 -1.84 192.36 C-1.82 189.75 -1.82 187.14 -1.81 184.53 C-1.8 182.66 -1.79 180.8 -1.79 178.94 C-1.77 174.91 -1.75 170.88 -1.74 166.86 C-1.72 160.49 -1.69 154.12 -1.66 147.74 C-1.6 134.2 -1.55 120.66 -1.5 107.12 C-1.44 92.54 -1.39 77.96 -1.32 63.38 C-1.29 57.05 -1.27 50.73 -1.25 44.4 C-1.24 40.45 -1.22 36.5 -1.2 32.55 C-1.19 30.72 -1.19 28.9 -1.18 27.08 C-1.16 18 -1.1 9.02 0 0 Z " fill="#E8F6FE" transform="translate(714,261)"/>
<path d="M0 0 C5.61 0 11.22 0 17 0 C17 7.59 17 15.18 17 23 C14.2 23.16 14.2 23.16 0 24 C0 16.08 0 8.16 0 0 Z " fill="#F2F2F2" transform="translate(1007,504)"/>
<path d="M0 0 C0.7 0 1.41 0.01 2.13 0.01 C2.83 0.01 3.53 0 4.26 0 C9.5 0.01 9.5 0.01 10.63 1.14 C10.72 2.77 10.74 4.41 10.73 6.05 C10.72 7.04 10.72 8.03 10.72 9.04 C10.71 10.09 10.7 11.13 10.69 12.2 C10.69 13.24 10.68 14.29 10.68 15.37 C10.67 17.96 10.65 20.55 10.63 23.14 C5.02 23.14 -0.59 23.14 -6.37 23.14 C-6.4 19.49 -6.42 15.85 -6.43 12.2 C-6.44 11.16 -6.45 10.12 -6.46 9.04 C-6.46 8.55 -6.46 8.55 -6.47 6.05 C-6.47 5.13 -6.48 4.21 -6.48 3.27 C-6.26 -0.98 -3.65 0.01 0 0 Z " fill="#F2F2F2" transform="translate(6.37109375,638.86328125)"/>
<path d="M0 0 C1.17 0.01 2.33 0.03 3.53 0.04 C4.11 0.05 4.11 0.05 7.06 0.06 C10.03 0.23 10.03 0.23 12.03 1.23 C12.03 8.49 12.03 15.75 12.03 23.23 C10.72 23.24 10.72 23.24 4.09 23.29 C3.27 23.3 2.44 23.31 1.59 23.32 C-0.26 23.33 -2.12 23.28 -3.97 23.23 C-6.27 20.93 -5.15 15.38 -5.16 12.29 C-5.17 11.36 -5.18 10.43 -5.19 9.47 C-5.2 8.58 -5.2 7.68 -5.2 6.77 C-5.2 6.36 -5.2 6.36 -5.21 4.28 C-4.79 0.72 -3.41 0.26 0 0 Z " fill="#F2F2F2" transform="translate(1011.96875,638.76953125)"/>
<path d="M0 0 C1.49 0.01 2.98 0.02 4.46 0.04 C7.08 0.06 9.7 0.08 12.4 0.1 C12.4 7.36 12.4 14.62 12.4 22.1 C4.43 23.24 4.43 23.24 0.53 23.22 C-0.23 23.23 -0.99 23.23 -1.78 23.23 C-3.6 23.1 -3.6 23.1 -4.6 22.1 C-4.7 20.55 -4.73 18.99 -4.73 17.44 C-4.73 16.5 -4.73 15.56 -4.73 14.59 C-4.73 13.61 -4.73 12.62 -4.72 11.6 C-4.73 10.61 -4.73 9.62 -4.73 8.6 C-4.73 7.66 -4.73 6.72 -4.73 5.75 C-4.73 4.89 -4.73 4.02 -4.73 3.12 C-4.5 -0.45 -3.73 0.1 0 0 Z " fill="#F2F2F2" transform="translate(1011.59765625,369.90234375)"/>
<path d="M0 0 C0 7.59 0 15.18 0 23 C-1.31 23.01 -1.31 23.01 -7.94 23.06 C-8.76 23.07 -9.59 23.08 -10.44 23.09 C-12.29 23.1 -14.15 23.05 -16 23 C-17.59 21.41 -17.13 19.76 -17.13 17.56 C-17.13 16.67 -17.14 15.77 -17.14 14.85 C-17.13 14.38 -17.13 14.38 -17.12 12 C-17.13 11.06 -17.13 10.12 -17.14 9.15 C-17.14 8.25 -17.13 7.36 -17.13 6.44 C-17.13 6.02 -17.13 6.02 -17.13 3.93 C-17 2 -17 2 -16 1 C-14.63 0.76 -13.25 0.58 -11.88 0.44 C-11.5 0.4 -11.5 0.4 -9.62 0.18 C-6.42 -0.04 -3.21 0 0 0 Z " fill="#FDFDFD" transform="translate(1024,963)"/>
<path d="M0 0 C1.49 0.01 2.98 0.02 4.46 0.04 C7.08 0.06 9.7 0.08 12.4 0.1 C12.4 7.36 12.4 14.62 12.4 22.1 C11.09 22.11 11.09 22.11 4.46 22.16 C3.64 22.17 2.81 22.18 1.96 22.19 C0.11 22.19 -1.75 22.15 -3.6 22.1 C-5.19 20.51 -4.73 18.86 -4.73 16.66 C-4.73 15.77 -4.73 14.87 -4.73 13.95 C-4.73 13.48 -4.73 13.48 -4.72 11.1 C-4.73 10.16 -4.73 9.22 -4.73 8.25 C-4.73 7.35 -4.73 6.46 -4.73 5.54 C-4.73 5.12 -4.73 5.12 -4.73 3.03 C-4.49 -0.47 -3.64 0.1 0 0 Z " fill="#F2F2F1" transform="translate(1011.59765625,148.90234375)"/>
<path d="M0 0 C6.93 0 13.86 0 21 0 C21.01 1.31 21.01 1.31 21.06 7.94 C21.07 8.76 21.08 9.59 21.09 10.44 C21.1 12.29 21.05 14.15 21 16 C19.44 17.56 17.94 17.13 15.78 17.13 C15.36 17.13 15.36 17.13 13.21 17.14 C12.76 17.13 12.76 17.13 10.5 17.12 C9.61 17.13 8.71 17.13 7.79 17.14 C6.94 17.14 6.09 17.13 5.22 17.13 C4.43 17.13 3.65 17.13 2.84 17.13 C1 17 1 17 0 16 C-0.07 13.3 -0.09 10.63 -0.06 7.94 C-0.04 5.32 -0.02 2.7 0 0 Z " fill="#F2F2F2" transform="translate(657,0)"/>
<path d="M0 0 C6.93 0 13.86 0 21 0 C21.01 1.31 21.01 1.31 21.06 7.94 C21.07 8.76 21.08 9.59 21.09 10.44 C21.1 12.29 21.05 14.15 21 16 C19.44 17.56 17.94 17.13 15.78 17.13 C15.36 17.13 15.36 17.13 13.21 17.14 C12.76 17.13 12.76 17.13 10.5 17.12 C9.61 17.13 8.71 17.13 7.79 17.14 C6.94 17.14 6.09 17.13 5.22 17.13 C4.43 17.13 3.65 17.13 2.84 17.13 C1 17 1 17 0 16 C-0.07 13.3 -0.09 10.63 -0.06 7.94 C-0.04 5.32 -0.02 2.7 0 0 Z " fill="#F2F2F2" transform="translate(465,0)"/>
<path d="M0 0 C0.87 0.01 1.75 0.01 2.65 0.02 C3.59 0.02 4.54 0.02 5.51 0.03 C6.5 0.03 7.5 0.04 8.52 0.05 C9.52 0.06 10.52 0.06 11.54 0.06 C14.01 0.08 16.49 0.09 18.96 0.11 C18.96 5.39 18.96 10.67 18.96 16.11 C11.7 16.11 4.44 16.11 -3.04 16.11 C-3.06 13.66 -3.08 11.2 -3.1 8.68 C-3.11 7.9 -3.12 7.13 -3.13 6.33 C-3.14 4.59 -3.09 2.85 -3.04 1.11 C-2.04 0.11 -2.04 0.11 0 0 Z " fill="#F2F2F2" transform="translate(276.041259765625,1007.886474609375)"/>
<path d="M0 0 C6.93 0 13.86 0 21 0 C21 5.28 21 10.56 21 16 C14.07 16 7.14 16 0 16 C0 10.72 0 5.44 0 0 Z " fill="#F2F2F2" transform="translate(678,1008)"/>
<path d="M0 0 C6.93 0 13.86 0 21 0 C21 5.28 21 10.56 21 16 C14.07 16 7.14 16 0 16 C0 10.72 0 5.44 0 0 Z " fill="#F2F2F2" transform="translate(593,1008)"/>
<path d="M0 0 C0.83 0.01 1.67 0.01 2.52 0.02 C3.42 0.02 4.32 0.02 5.25 0.03 C5.72 0.03 5.72 0.03 8.11 0.05 C9.06 0.06 10.01 0.06 10.99 0.06 C13.34 0.08 15.7 0.09 18.05 0.11 C18.05 5.39 18.05 10.67 18.05 16.11 C11.12 16.11 4.19 16.11 -2.95 16.11 C-2.97 13.66 -2.99 11.2 -3.01 8.68 C-3.02 7.9 -3.03 7.13 -3.04 6.33 C-3.05 4.59 -3 2.85 -2.95 1.11 C-1.95 0.11 -1.95 0.11 0 0 Z " fill="#F2F2F2" transform="translate(169.949462890625,1007.886474609375)"/>
<path d="M0 0 C5.61 0 11.22 0 17 0 C17 5.28 17 10.56 17 16 C11.39 16 5.78 16 0 16 C0 10.72 0 5.44 0 0 Z " fill="#FDFDFD" transform="translate(1007,1008)"/>
<path d="M0 0 C2 -0.04 4 -0.04 6 0 C7 1 7 1 7.12 3.02 C7.12 3.46 7.12 3.46 7.11 5.7 C7.11 6.7 7.11 7.71 7.11 8.74 C7.11 9.83 7.1 10.91 7.1 12.04 C7.1 13.14 7.09 14.25 7.09 15.39 C7.09 18.95 7.08 22.51 7.06 26.06 C7.06 28.47 7.05 30.87 7.05 33.28 C7.04 39.18 7.02 45.09 7 51 C6.67 51 6.34 51 6 51 C6 34.83 6 18.66 6 2 C0.39 4.31 -5.22 6.62 -11 9 C-11.99 9.33 -12.98 9.66 -14 10 C-14 9.34 -14 8.68 -14 8 C-12.57 7.33 -11.13 6.66 -9.69 6 C-9.29 5.81 -9.29 5.81 -7.26 4.88 C-5 4 -5 4 -2 4 C-2 3.34 -2 2.68 -2 2 C-1.34 2 -0.68 2 0 2 C0 1.34 0 0.68 0 0 Z " fill="#F2FEFE" transform="translate(769,497)"/>
<path d="M0 0 C-3.08 2.49 -6.2 4.16 -9.8 5.81 C-10.36 6.07 -10.36 6.07 -13.2 7.38 C-14.37 7.92 -15.54 8.45 -16.75 9 C-17.9 9.53 -19.06 10.07 -20.25 10.62 C-26.1 13.3 -31.93 15.85 -38 18 C-38 17.34 -38 16.68 -38 16 C-27.8 10 -27.8 10 -22 10 C-22 9.34 -22 8.68 -22 8 C-20.68 8 -19.36 8 -18 8 C-18 7.34 -18 6.68 -18 6 C-15.09 4.74 -13.2 4 -10 4 C-10 3.34 -10 2.68 -10 2 C-6.49 0.4 -3.86 -0.22 0 0 Z " fill="#DBF3FE" transform="translate(645,629)"/>
<path d="M0 0 C11.52 7.3 11.52 7.3 17 11 C14.19 12.41 12.95 11.53 9.99 10.57 C9.01 10.25 8.02 9.93 7 9.6 C5.97 9.26 4.94 8.92 3.88 8.56 C2.83 8.22 1.79 7.89 0.72 7.54 C-1.85 6.7 -4.43 5.85 -7 5 C-7 4.67 -7 4.34 -7 4 C-4.69 4 -2.38 4 0 4 C0 2.68 0 1.36 0 0 Z " fill="#26446C" transform="translate(491,513)"/>
<path d="M0 0 C0.99 0.33 1.98 0.66 3 1 C2.26 1.35 1.53 1.71 0.77 2.07 C-2.57 3.67 -5.91 5.27 -9.25 6.88 C-10.41 7.43 -11.57 7.99 -12.76 8.56 C-13.32 8.83 -13.32 8.83 -16.14 10.18 C-17.17 10.67 -18.19 11.16 -19.25 11.67 C-20.92 12.48 -22.57 13.31 -24.2 14.19 C-26.76 15.34 -28.38 14.85 -31 14 C-31.33 13.34 -31.66 12.68 -32 12 C-28.95 11.02 -27.05 11.02 -24 12 C-24 11.34 -24 10.68 -24 10 C-22.35 10 -20.7 10 -19 10 C-19 9.34 -19 8.68 -19 8 C-17.68 8 -16.36 8 -15 8 C-15 7.34 -15 6.68 -15 6 C-13.68 6 -12.36 6 -11 6 C-11 5.34 -11 4.68 -11 4 C-10.69 3.9 -10.69 3.9 -9.1 3.38 C-8.28 3.11 -7.47 2.84 -6.62 2.56 C-5.81 2.3 -5 2.03 -4.16 1.75 C-2 1 -2 1 0 0 Z " fill="#33609F" transform="translate(540,653)"/>
<path d="M0 0 C0.4 0.01 0.4 0.01 2.44 0.06 C-1.13 2.94 -5.06 5.06 -9.06 7.25 C-16.16 11.17 -22.9 15.43 -29.56 20.06 C-29.89 19.4 -30.22 18.74 -30.56 18.06 C-29.9 18.06 -29.24 18.06 -28.56 18.06 C-28.56 17.4 -28.56 16.74 -28.56 16.06 C-27.57 16.06 -26.58 16.06 -25.56 16.06 C-25.56 15.4 -25.56 14.74 -25.56 14.06 C-24.57 14.06 -23.58 14.06 -22.56 14.06 C-22.56 13.4 -22.56 12.74 -22.56 12.06 C-21.2 10.98 -21.2 10.98 -19.25 9.81 C-18.53 9.38 -17.81 8.95 -17.07 8.5 C-13.34 6.36 -9.57 4.32 -5.79 2.3 C-1.73 0.04 -1.73 0.04 0 0 Z " fill="#E2F2FA" transform="translate(557.5625,250.9375)"/>
<path d="M0 0 C-0.68 0.32 -1.35 0.65 -2.05 0.98 C-5.12 2.44 -8.18 3.91 -11.25 5.38 C-11.78 5.63 -11.78 5.63 -14.47 6.91 C-15.5 7.4 -16.52 7.89 -17.58 8.4 C-18.52 8.85 -19.46 9.3 -20.43 9.76 C-22.03 10.53 -23.61 11.35 -25.15 12.23 C-27 13 -27 13 -30 12 C-29.67 11.34 -29.34 10.68 -29 10 C-27.35 10 -25.7 10 -24 10 C-24 9.34 -24 8.68 -24 8 C-22.68 8 -21.36 8 -20 8 C-20 7.34 -20 6.68 -20 6 C-18.68 6 -17.36 6 -16 6 C-16 5.34 -16 4.68 -16 4 C-13.9 3.13 -11.8 2.28 -9.69 1.44 C-8.52 0.96 -7.34 0.49 -6.14 -0 C-3 -1 -3 -1 0 0 Z " fill="#2B4B77" transform="translate(569,713)"/>
<path d="M0 0 C2 3 2 3 2 5 C-0.48 7.48 -2.55 7.99 -5.88 9.06 C-6.92 9.4 -7.97 9.75 -9.05 10.1 C-11.36 10.8 -13.65 11.45 -16 12 C-12.9 8.66 -9.56 6.24 -5.75 3.75 C-4.67 3.04 -3.59 2.34 -2.48 1.61 C-1.66 1.08 -0.84 0.55 0 0 Z " fill="#264065" transform="translate(533,513)"/>
<path d="M0 0 C1.65 0 3.3 0 5 0 C2.23 2.21 -0.47 3.81 -3.7 5.26 C-4.58 5.66 -5.46 6.05 -6.36 6.46 C-7.27 6.87 -8.19 7.27 -9.12 7.69 C-10.04 8.1 -10.96 8.52 -11.91 8.95 C-18.74 12 -18.74 12 -21 12 C-21 11.34 -21 10.68 -21 10 C-20.01 9.67 -19.02 9.34 -18 9 C-17.67 8.34 -17.34 7.68 -17 7 C-15.68 7.33 -14.36 7.66 -13 8 C-13 7.34 -13 6.68 -13 6 C-11.68 6 -10.36 6 -9 6 C-9 5.34 -9 4.68 -9 4 C-7.68 4 -6.36 4 -5 4 C-5 3.34 -5 2.68 -5 2 C-3.35 2 -1.7 2 0 2 C0 1.34 0 0.68 0 0 Z " fill="#3461A0" transform="translate(746,557)"/>
<path d="M0 0 C1.98 0 3.96 0 6 0 C3.97 2.03 2.6 2.75 0.01 3.88 C-0.78 4.22 -1.57 4.57 -2.38 4.92 C-3.2 5.28 -4.03 5.63 -4.88 6 C-6.5 6.71 -8.12 7.42 -9.74 8.12 C-10.46 8.44 -11.18 8.75 -11.93 9.07 C-14 10 -14 10 -16.08 11.12 C-18 12 -18 12 -21 12 C-21 11.34 -21 10.68 -21 10 C-20.01 10 -19.02 10 -18 10 C-18 9.34 -18 8.68 -18 8 C-17.05 7.71 -16.1 7.42 -15.12 7.12 C-12 6 -12 6 -10 4 C-7.62 3.37 -7.62 3.37 -4.88 2.88 C-4.42 2.79 -4.42 2.79 -2.12 2.37 C-1.42 2.25 -0.72 2.12 0 2 C0 1.34 0 0.68 0 0 Z " fill="#2D4C78" transform="translate(709,645)"/>
<path d="M0 0 C1.15 0.66 1.15 0.66 7 4 C7 5.32 7 6.64 7 8 C3.37 8 -0.26 8 -4 8 C-2.68 7.01 -1.36 6.02 0 5 C0.25 2.31 0.25 2.31 0 0 Z " fill="#1A3E6D" transform="translate(484,509)"/>
<path d="M0 0 C-7.59 3.63 -15.18 7.26 -23 11 C-23.33 10.34 -23.66 9.68 -24 9 C-23.67 8.34 -23.34 7.68 -23 7 C-20.93 6.37 -20.93 6.37 -18.44 5.88 C-17.61 5.71 -16.78 5.54 -15.93 5.37 C-15.61 5.31 -15.61 5.31 -14 5 C-14 4.34 -14 3.68 -14 3 C-12.68 3 -11.36 3 -10 3 C-10 2.34 -10 1.68 -10 1 C-5.89 -0.59 -4.41 -1.1 0 0 Z " fill="#264876" transform="translate(740,634)"/>
<path d="M0 0 C1.98 0 3.96 0 6 0 C2.34 3.11 -1.76 4.82 -6.12 6.69 C-6.85 7.01 -7.58 7.33 -8.33 7.66 C-13.73 10 -13.73 10 -16 10 C-16 9.34 -16 8.68 -16 8 C-15.01 8 -14.02 8 -13 8 C-13 7.34 -13 6.68 -13 6 C-11.35 6 -9.7 6 -8 6 C-8 5.34 -8 4.68 -8 4 C-6.68 4 -5.36 4 -4 4 C-4 3.34 -4 2.68 -4 2 C-2.68 2 -1.36 2 0 2 C0 1.34 0 0.68 0 0 Z " fill="#3661A0" transform="translate(689,583)"/>
<path d="M0 0 C-6.88 3.6 -13.56 6.77 -21 9 C-21 8.34 -21 7.68 -21 7 C-20.34 7 -19.68 7 -19 7 C-19 6.34 -19 5.68 -19 5 C-17.02 5 -15.04 5 -13 5 C-13 4.34 -13 3.68 -13 3 C-11.68 3 -10.36 3 -9 3 C-9 2.34 -9 1.68 -9 1 C-3.38 -1.12 -3.38 -1.12 0 0 Z " fill="#37629D" transform="translate(772,548)"/>
<path d="M0 0 C-2.75 1.32 -5.5 2.63 -8.25 3.94 C-9.03 4.31 -9.8 4.68 -10.61 5.07 C-10.98 5.25 -10.98 5.25 -12.89 6.15 C-13.58 6.48 -14.27 6.81 -14.99 7.15 C-16.97 7.99 -18.9 8.54 -21 9 C-21 8.34 -21 7.68 -21 7 C-20.01 7 -19.02 7 -18 7 C-18 6.34 -18 5.68 -18 5 C-16.68 5 -15.36 5 -14 5 C-14 4.34 -14 3.68 -14 3 C-12.68 3 -11.36 3 -10 3 C-10 2.34 -10 1.68 -10 1 C-3.38 -1.12 -3.38 -1.12 0 0 Z " fill="#335078" transform="translate(645,678)"/>
<path d="M0 0 C1.98 0 3.96 0 6 0 C6 0.66 6 1.32 6 2 C3.23 3.15 0.46 4.29 -2.31 5.44 C-3.1 5.76 -3.88 6.09 -4.69 6.42 C-5.45 6.74 -6.21 7.05 -6.99 7.37 C-7.34 7.52 -7.34 7.52 -9.1 8.24 C-10.71 8.89 -12.35 9.45 -14 10 C-14 9.34 -14 8.68 -14 8 C-12.57 7.33 -11.13 6.66 -9.69 6 C-9.29 5.81 -9.29 5.81 -7.26 4.88 C-5 4 -5 4 -2 4 C-2 3.34 -2 2.68 -2 2 C-1.34 2 -0.68 2 0 2 C0 1.34 0 0.68 0 0 Z " fill="#D1F2FC" transform="translate(769,497)"/>
<path d="M0 0 C1.98 0 3.96 0 6 0 C2.99 2.42 -0.06 4.13 -3.56 5.75 C-4.51 6.2 -5.46 6.65 -6.44 7.11 C-9 8 -9 8 -12 7 C-10.81 5.5 -10.81 5.5 -9 4 C-6.31 3.81 -6.31 3.81 -4 4 C-4 3.34 -4 2.68 -4 2 C-2.68 2 -1.36 2 0 2 C0 1.34 0 0.68 0 0 Z " fill="#30507A" transform="translate(661,667)"/>
<path d="M0 0 C1.65 0 3.3 0 5 0 C1.68 2.74 -1.83 4.42 -5.75 6.19 C-6.92 6.72 -8.09 7.25 -9.3 7.79 C-10.19 8.19 -11.08 8.59 -12 9 C-12 8.01 -12 7.02 -12 6 C-11.03 5.71 -10.06 5.42 -9.06 5.12 C-6 4 -6 4 -5 2 C-3.35 2 -1.7 2 0 2 C0 1.34 0 0.68 0 0 Z " fill="#263B59" transform="translate(698,721)"/>
<path d="M0 0 C0.99 0.16 0.99 0.16 6 1 C2.94 3.49 -0.15 5.1 -3.75 6.69 C-4.73 7.12 -5.72 7.56 -6.73 8.01 C-7.48 8.34 -8.23 8.66 -9 9 C-9 8.34 -9 7.68 -9 7 C-6 5 -6 5 -3 5 C-2.67 4.01 -2.34 3.02 -2 2 C-1.34 2 -0.68 2 0 2 C0 1.34 0 0.68 0 0 Z " fill="#284B78" transform="translate(591,698)"/>
<path d="M0 0 C1.65 0 3.3 0 5 0 C1.97 2.45 -1.08 4.09 -4.62 5.69 C-5.59 6.12 -6.55 6.56 -7.54 7.01 C-10 8 -10 8 -12 8 C-12 7.34 -12 6.68 -12 6 C-11.01 6 -10.02 6 -9 6 C-9 5.34 -9 4.68 -9 4 C-7.35 4 -5.7 4 -4 4 C-4 3.34 -4 2.68 -4 2 C-2.68 2 -1.36 2 0 2 C0 1.34 0 0.68 0 0 Z " fill="#38619D" transform="translate(707,575)"/>
<path d="M0 0 C2.31 0 4.62 0 7 0 C4.68 2.32 2.53 3.31 -0.44 4.69 C-1.41 5.15 -2.37 5.6 -3.37 6.07 C-6 7 -6 7 -9 6 C-3.38 2 -3.38 2 0 2 C0 1.34 0 0.68 0 0 Z " fill="#D5F3FF" transform="translate(665,545)"/>
<path d="M0 0 C-3.3 2.7 -6.76 4.42 -10.62 6.19 C-11.77 6.72 -12.92 7.25 -14.1 7.79 C-17 9 -17 9 -19 9 C-19 8.34 -19 7.68 -19 7 C-16.78 5.82 -14.55 4.66 -12.31 3.5 C-11.69 3.17 -11.06 2.83 -10.42 2.49 C-6.8 0.63 -4.09 -0.44 0 0 Z " fill="#D8F2FE" transform="translate(723,593)"/>
<path d="M0 0 C0.48 0.01 0.48 0.01 2.94 0.06 C0.01 2.02 -2.93 3.64 -6.06 5.25 C-7.11 5.8 -8.17 6.35 -9.25 6.92 C-12.06 8.06 -12.06 8.06 -15.06 7.06 C-13.74 6.73 -12.42 6.4 -11.06 6.06 C-11.06 5.4 -11.06 4.74 -11.06 4.06 C-9.93 3.59 -8.79 3.11 -7.62 2.62 C-1.72 0.04 -1.72 0.04 0 0 Z " fill="#D0F0FE" transform="translate(600.0625,576.9375)"/>
<path d="M0 0 C3.63 2.31 7.26 4.62 11 7 C9 8 9 8 6.18 7.22 C5.09 6.84 4 6.46 2.88 6.06 C1.78 5.68 0.68 5.3 -0.45 4.91 C-1.29 4.61 -2.13 4.31 -3 4 C-2.01 2.68 -1.02 1.36 0 0 Z " fill="#445978" transform="translate(497,517)"/>
<path d="M0 0 C1.65 0 3.3 0 5 0 C1.97 2.45 -1.08 4.09 -4.62 5.69 C-5.59 6.12 -6.55 6.56 -7.54 7.01 C-10 8 -10 8 -12 8 C-12 7.34 -12 6.68 -12 6 C-11.01 6 -10.02 6 -9 6 C-9 5.34 -9 4.68 -9 4 C-6.03 3.34 -3.06 2.68 0 2 C0 1.34 0 0.68 0 0 Z " fill="#38629D" transform="translate(668,593)"/>
<path d="M0 0 C2 1 2 1 2 1 Z M-4 1 C-2.35 1.33 -0.7 1.66 1 2 C1 2.66 1 3.32 1 4 C1.66 4.33 2.32 4.66 3 5 C-1.43 7.09 -1.43 7.09 -4.31 6.62 C-4.87 6.42 -5.43 6.21 -6 6 C-5.01 6 -4.02 6 -3 6 C-3 5.34 -3 4.68 -3 4 C-3.66 3.67 -4.32 3.34 -5 3 C-4.67 2.34 -4.34 1.68 -4 1 Z " fill="#14315D" transform="translate(538,512)"/>
<path d="M0 0 C-1 3 -1 3 -3.88 4.75 C-7 6 -7 6 -10 5 C-10 4.34 -10 3.68 -10 3 C-6.27 0.97 -4.33 0 0 0 Z " fill="#1A396D" transform="translate(742,657)"/>
<path d="M0 0 C1.65 0.33 3.3 0.66 5 1 C2.33 3.67 -0.49 4.65 -4 6 C-4.99 6 -5.98 6 -7 6 C-7 5.34 -7 4.68 -7 4 C-5.68 4 -4.36 4 -3 4 C-3 3.34 -3 2.68 -3 2 C-2.01 2 -1.02 2 0 2 C0 1.34 0 0.68 0 0 Z " fill="#253D5C" transform="translate(524,801)"/>
<path d="M0 0 C1.98 0 3.96 0 6 0 C2.24 3.43 -2.23 4.56 -7 6 C-7 5.34 -7 4.68 -7 4 C-5.68 4 -4.36 4 -3 4 C-3 3.34 -3 2.68 -3 2 C-2.01 2 -1.02 2 0 2 C0 1.34 0 0.68 0 0 Z " fill="#39659F" transform="translate(615,617)"/>
<path d="M0 0 C0.66 0.33 1.32 0.66 2 1 C2 1.66 2 2.32 2 3 C2.74 3.14 3.49 3.29 4.25 3.44 C5.16 3.62 6.06 3.81 7 4 C7.74 4.12 8.49 4.25 9.25 4.38 C9.83 4.58 10.4 4.79 11 5 C11.33 5.99 11.66 6.98 12 8 C7.53 6.58 3.29 4.89 -1 3 C-0.67 2.01 -0.34 1.02 0 0 Z " fill="#DEF0FB" transform="translate(339,608)"/>
<path d="M0 0 C1.65 0 3.3 0 5 0 C1.24 3.43 -3.23 4.56 -8 6 C-8 5.34 -8 4.68 -8 4 C-7.01 4 -6.02 4 -5 4 C-5 3.34 -5 2.68 -5 2 C-3.35 2 -1.7 2 0 2 C0 1.34 0 0.68 0 0 Z " fill="#3C64A1" transform="translate(642,605)"/>
<path d="M0 0 C-3.13 2.53 -6.3 4.42 -10 6 C-10.99 5.67 -11.98 5.34 -13 5 C-11.68 4.67 -10.36 4.34 -9 4 C-9 3.34 -9 2.68 -9 2 C-5.87 0.14 -3.63 -0.2 0 0 Z " fill="#DCF4FE" transform="translate(770,571)"/>
<path d="M0 0 C0.99 0.33 1.98 0.66 3 1 C1.04 2 -0.91 3 -2.88 4 C-3.97 4.56 -5.06 5.11 -6.18 5.69 C-9 7 -9 7 -11 7 C-11 6.01 -11 5.02 -11 4 C-10.37 3.8 -9.75 3.59 -9.1 3.38 C-8.28 3.11 -7.47 2.84 -6.62 2.56 C-5.81 2.3 -5 2.03 -4.16 1.75 C-2 1 -2 1 0 0 Z " fill="#41659C" transform="translate(540,653)"/>
<path d="M0 0 C1.65 0 3.3 0 5 0 C1.59 2.86 -1.91 4.35 -6 6 C-5.67 4.68 -5.34 3.36 -5 2 C-3.35 2 -1.7 2 0 2 C0 1.34 0 0.68 0 0 Z " fill="#DCF8FF" transform="translate(679,539)"/>
<path d="M0 0 C-3.65 3.04 -7.74 4.97 -12 7 C-12 6.01 -12 5.02 -12 4 C-4.71 -0.57 -4.71 -0.57 0 0 Z " fill="#D5E8F5" transform="translate(560,251)"/>
<path d="M0 0 C-1 3 -1 3 -3.29 4.17 C-4.2 4.5 -5.12 4.84 -6.06 5.19 C-6.52 5.36 -6.52 5.36 -8.85 6.23 C-9.56 6.48 -10.27 6.74 -11 7 C-11 6.34 -11 5.68 -11 5 C-9.36 3.71 -9.36 3.71 -7.19 2.38 C-6.48 1.93 -5.77 1.48 -5.04 1.02 C-3 0 -3 0 0 0 Z " fill="#223859" transform="translate(757,695)"/>
<path d="M0 0 C0.76 0.21 1.53 0.41 2.31 0.62 C-0.31 2.78 -2.33 4.03 -5.69 4.62 C-5.69 3.63 -5.69 2.64 -5.69 1.62 C-2.69 -0.38 -2.69 -0.38 0 0 Z " fill="#283F61" transform="translate(608.6875,763.375)"/>
<path d="M0 0 C2.31 0 4.62 0 7 0 C4.64 2.53 3.34 3.89 0 5 C0 3.35 0 1.7 0 0 Z " fill="#22395A" transform="translate(522,497)"/>
<path d="M0 0 C0.99 0 1.98 0 3 0 C2.67 0.99 2.34 1.98 2 3 C-0.07 3.95 -0.07 3.95 -2.56 4.69 C-3.39 4.94 -4.22 5.19 -5.07 5.45 C-5.7 5.63 -6.34 5.81 -7 6 C-7 5.34 -7 4.68 -7 4 C-4.35 2.54 -3.11 2 0 2 C0 1.34 0 0.68 0 0 Z " fill="#283C5B" transform="translate(561,477)"/>
<path d="M0 0 C2.64 0 5.28 0 8 0 C4.33 2.45 1.45 4 -3 4 C-3 3.34 -3 2.68 -3 2 C-2.01 2 -1.02 2 0 2 C0 1.34 0 0.68 0 0 Z " fill="#233B5A" transform="translate(579,469)"/>
<path d="M0 0 C-1.65 0.83 -1.65 0.83 -10 5 C-10.33 4.34 -10.66 3.68 -11 3 C-4.5 -1.12 -4.5 -1.12 0 0 Z " fill="#DDF5FE" transform="translate(618,642)"/>
<path d="M0 0 C-1.82 0.83 -1.82 0.83 -11 5 C-10.67 3.68 -10.34 2.36 -10 1 C-3.38 -1.12 -3.38 -1.12 0 0 Z " fill="#2F5079" transform="translate(727,640)"/>
<path d="M0 0 C1.65 0 3.3 0 5 0 C1.87 2.64 -1.09 3.84 -5 5 C-5 4.01 -5 3.02 -5 2 C-3.35 2 -1.7 2 0 2 C0 1.34 0 0.68 0 0 Z " fill="#3E66A2" transform="translate(746,557)"/>
<path d="M0 0 C2.97 0.33 5.94 0.66 9 1 C9 1.66 9 2.32 9 3 C9.66 3 10.32 3 11 3 C11 3.66 11 4.32 11 5 C7.28 3.79 3.62 2.49 0 1 C0 0.67 0 0.34 0 0 Z " fill="#4070B8" transform="translate(266,554)"/>
<path d="M0 0 C0 0.99 0 1.98 0 3 C-2.25 4.75 -2.25 4.75 -5 6 C-6.32 5.67 -7.64 5.34 -9 5 C-6.03 3.35 -3.06 1.7 0 0 Z " fill="#214371" transform="translate(543,507)"/>
<path d="M0 0 C1.65 0 3.3 0 5 0 C1.87 2.64 -1.09 3.84 -5 5 C-4.67 4.01 -4.34 3.02 -4 2 C-2.68 2 -1.36 2 0 2 C0 1.34 0 0.68 0 0 Z " fill="#DFF0FA" transform="translate(551,741)"/>
<path d="M0 0 C-3.3 1.32 -6.6 2.64 -10 4 C-10 3.01 -10 2.02 -10 1 C-5.89 -0.59 -4.41 -1.1 0 0 Z " fill="#3B5981" transform="translate(771,620)"/>
<path d="M0 0 C-2.26 2.26 -4 2.98 -7 4 C-7.99 4 -8.98 4 -10 4 C-10 3.34 -10 2.68 -10 2 C-6.6 -0.09 -3.95 -0.18 0 0 Z " fill="#CCECFE" transform="translate(694,535)"/>
<path d="M0 0 C0.33 0 0.66 0 1 0 C1 1.98 1 3.96 1 6 C0.18 5.67 0.18 5.67 -4 4 C-4 3.01 -4 2.02 -4 1 C-2.68 1.33 -1.36 1.66 0 2 C0 1.34 0 0.68 0 0 Z " fill="#22406D" transform="translate(502,496)"/>
<path d="M0 0 C3.63 0 7.26 0 11 0 C10.5 0.5 10.5 0.5 8 3 C4.52 2.74 2.95 1.97 0 0 Z " fill="#2D4361" transform="translate(506,807)"/>
<path d="M0 0 C1.32 0.33 2.64 0.66 4 1 C-2.75 5 -2.75 5 -5 5 C-4.67 4.01 -4.34 3.02 -4 2 C-2.68 2 -1.36 2 0 2 C0 1.34 0 0.68 0 0 Z " fill="#C8E6F8" transform="translate(623,637)"/>
<path d="M0 0 C1.98 0 3.96 0 6 0 C6 0.66 6 1.32 6 2 C7.32 2.33 8.64 2.66 10 3 C8.38 3.69 8.38 3.69 6 4 C2.75 2.56 2.75 2.56 0 1 C0 0.67 0 0.34 0 0 Z " fill="#3268B1" transform="translate(308,573)"/>
<path d="M0 0 C-1.26 2.51 -2.5 2.87 -5 4 C-5.99 3.01 -6.98 2.02 -8 1 C-3.38 -1.12 -3.38 -1.12 0 0 Z " fill="#2369CE" transform="translate(768,503)"/>
<path d="M0 0 C-3.23 1.74 -6.51 2.89 -10 4 C-9.67 3.01 -9.34 2.02 -9 1 C-6.04 -0.48 -3.26 -0.06 0 0 Z " fill="#D9E8F5" transform="translate(598,235)"/>
</svg>
