<?xml version="1.0" encoding="UTF-8"?>
<!-- Generator: visioncortex VTracer 0.6.5 -->
<svg version="1.1" xmlns="http://www.w3.org/2000/svg" width="1024" height="1024">
<path d="M0 0 C337.92 0 675.84 0 1024 0 C1024 337.92 1024 675.84 1024 1024 C686.08 1024 348.16 1024 0 1024 C0 686.08 0 348.16 0 0 Z " fill="#FDFDFD" transform="translate(0,0)"/>
<path d="M0 0 C0.85 0.41 1.7 0.81 2.57 1.23 C3.47 1.67 4.37 2.11 5.29 2.56 C5.76 2.79 5.76 2.79 8.15 3.93 C15.49 7.49 22.8 11.12 30.09 14.79 C35.21 17.37 40.35 19.93 45.48 22.5 C47.72 23.62 49.96 24.74 52.2 25.86 C52.73 26.12 52.73 26.12 55.44 27.47 C58.94 29.23 58.94 29.23 76.48 38 C76.48 63.08 76.48 88.16 76.48 114 C108.16 114 139.84 114 172.48 114 C172.48 145.68 172.48 177.36 172.48 210 C201.85 210 231.22 210 261.48 210 C261.48 178.32 261.48 146.64 261.48 114 C292.83 114 324.18 114 356.48 114 C356.48 88.92 356.48 63.84 356.48 38 C374.21 29.13 374.21 29.13 381.92 25.56 C387.95 22.74 393.87 19.78 399.73 16.62 C409.3 11.46 419.11 6.82 428.96 2.22 C430.57 1.44 432.16 0.62 433.73 -0.25 C436.94 -2.03 438.84 -3.01 442.58 -2.96 C445.96 -1.85 448.82 -0.38 451.92 1.37 C457.89 4.66 463.94 7.71 470.11 10.62 C482.6 16.53 495.01 22.61 507.42 28.68 C508.45 29.19 509.49 29.7 510.56 30.22 C516.53 33.14 522.51 36.07 528.48 39 C528.48 52.53 528.48 66.06 528.48 80 C519.3 84.59 510.16 89.15 500.86 93.48 C495.9 95.81 491 98.23 486.11 100.68 C475.94 105.79 465.7 110.75 455.47 115.71 C446.35 120.14 437.25 124.59 428.2 129.14 C421.51 132.49 414.78 135.75 408.04 139 C406.77 139.61 405.5 140.22 404.23 140.83 C397.56 144.05 390.88 147.24 384.17 150.37 C375 154.66 365.97 159.22 356.94 163.79 C343.21 170.7 329.34 177.35 315.48 184 C314.53 184.45 313.58 184.91 312.61 185.38 C310.25 186.5 307.9 187.63 305.54 188.75 C305.22 188.9 305.22 188.9 303.58 189.69 C299.9 191.42 296.38 192.7 292.48 194 C292.48 201.26 292.48 208.52 292.48 216 C294.38 215.04 296.28 214.09 298.23 213.1 C312.92 205.72 327.65 198.46 342.5 191.41 C348.15 188.73 353.78 186.02 359.42 183.31 C360.48 182.8 361.55 182.29 362.65 181.76 C371.3 177.6 379.9 173.31 388.48 169 C422.22 152.05 422.22 152.05 435.86 145.5 C436.79 145.05 437.72 144.6 438.68 144.13 C439.53 143.73 440.38 143.32 441.25 142.9 C441.98 142.55 442.71 142.21 443.45 141.85 C448.58 139.69 448.58 139.69 451.31 140.63 C451.94 140.98 452.57 141.33 453.22 141.7 C453.94 142.1 454.67 142.49 455.42 142.9 C456.2 143.35 456.99 143.79 457.79 144.25 C465.14 148.25 472.55 152.04 480.11 155.62 C481.08 156.08 482.05 156.55 483.05 157.02 C487.42 159.09 491.79 161.14 496.16 163.19 C497.58 163.85 499 164.52 500.42 165.18 C501.09 165.5 501.76 165.81 502.45 166.14 C509.86 169.62 517.17 173.3 524.48 177 C525.8 177.66 527.12 178.32 528.48 179 C528.48 192.86 528.48 206.72 528.48 221 C525.02 222.65 521.55 224.3 517.98 226 C505.9 231.77 493.9 237.65 482.06 243.91 C472.79 248.81 463.43 253.46 453.94 257.94 C446.99 261.23 440.18 264.74 433.4 268.37 C427.23 271.65 420.94 274.65 414.6 277.6 C408.97 280.24 403.46 283.06 397.98 286 C390.99 289.73 383.91 293.2 376.73 296.55 C371.5 299 366.38 301.59 361.3 304.31 C347.61 311.57 333.74 318.47 319.89 325.41 C318.44 326.14 316.99 326.86 315.55 327.59 C308.76 330.99 301.97 334.39 295.19 337.79 C287.39 341.69 279.59 345.61 271.79 349.53 C265.73 352.57 259.66 355.61 253.6 358.65 C249.99 360.45 246.38 362.26 242.77 364.08 C239.39 365.78 236.01 367.47 232.63 369.16 C231.39 369.78 230.15 370.4 228.92 371.02 C227.23 371.88 225.54 372.72 223.84 373.56 C223.37 373.79 223.37 373.79 220.98 374.99 C217.79 376.27 215.45 376.37 212.22 375.11 C211.39 374.7 210.56 374.28 209.7 373.85 C208.74 373.37 207.79 372.9 206.8 372.4 C206.28 372.14 206.28 372.14 203.63 370.8 C202.53 370.25 201.42 369.69 200.28 369.12 C197.24 367.6 194.21 366.08 191.18 364.55 C187.99 362.94 184.8 361.34 181.61 359.75 C175.55 356.71 169.49 353.66 163.43 350.62 C156.6 347.18 149.77 343.75 142.94 340.33 C131.14 334.41 119.35 328.49 107.56 322.56 C100.78 319.15 93.99 315.74 87.2 312.36 C82.89 310.22 78.64 307.98 74.42 305.68 C67.12 301.77 59.69 298.19 52.2 294.65 C43.09 290.32 34.06 285.83 25.04 281.31 C24.69 281.13 24.69 281.13 22.9 280.24 C19.46 278.51 16.02 276.78 12.57 275.05 C6.47 271.99 0.36 268.94 -5.74 265.88 C-8.27 264.62 -10.8 263.35 -13.33 262.09 C-14.19 261.66 -15.05 261.23 -15.93 260.79 C-17.74 259.89 -19.54 258.98 -21.34 258.08 C-25.52 255.99 -29.7 253.91 -33.88 251.83 C-40.59 248.5 -47.24 245.1 -53.83 241.56 C-60.61 237.92 -67.49 234.56 -74.49 231.35 C-81.36 228.17 -87.8 224.61 -94.52 221 C-94.52 207.14 -94.52 193.28 -94.52 179 C-89.24 176.36 -83.96 173.72 -78.52 171 C-77.46 170.46 -77.46 170.46 -72.08 167.76 C-60.53 161.95 -48.95 156.21 -37.26 150.7 C-33.35 148.85 -29.47 147 -25.67 144.95 C-24.63 144.38 -23.59 143.82 -22.52 143.25 C-21.69 142.78 -20.87 142.31 -20.02 141.82 C-14.05 139.85 -8.73 142.59 -3.4 145.21 C-2.52 145.65 -1.64 146.1 -0.73 146.55 C0.21 147.02 1.15 147.48 2.12 147.96 C5.12 149.44 8.11 150.94 11.11 152.43 C14.04 153.89 16.97 155.34 19.91 156.79 C21.86 157.76 23.81 158.73 25.75 159.69 C33.31 163.44 40.91 167.09 48.54 170.7 C54.7 173.61 60.81 176.61 66.89 179.68 C72.94 182.73 78.99 185.77 85.04 188.81 C85.65 189.11 86.25 189.41 86.87 189.72 C96 194.3 105.18 198.76 114.41 203.14 C123.16 207.3 131.82 211.63 140.48 216 C140.48 208.74 140.48 201.48 140.48 194 C139.16 193.67 137.84 193.34 136.48 193 C134.73 192.23 133 191.42 131.29 190.59 C130.78 190.34 130.78 190.34 128.2 189.1 C127.12 188.57 126.04 188.04 124.92 187.5 C122.65 186.4 120.38 185.3 118.11 184.2 C116.98 183.65 115.86 183.11 114.7 182.55 C110.29 180.42 105.85 178.33 101.42 176.25 C93.04 172.29 84.75 168.17 76.48 164 C64.76 158.08 53 152.25 41.14 146.61 C31.73 142.13 22.35 137.56 12.98 133 C-2.5 125.45 -18 117.96 -33.57 110.61 C-43.62 105.87 -53.6 101.01 -63.52 96 C-66.21 94.64 -68.89 93.29 -71.58 91.93 C-72.75 91.34 -73.92 90.76 -75.12 90.15 C-81.54 87.01 -88.04 84.02 -94.52 81 C-94.52 66.81 -94.52 52.62 -94.52 38 C-92.6 37.12 -92.6 37.12 -82.89 32.68 C-69.21 26.38 -55.73 19.68 -42.28 12.89 C-38.49 10.97 -34.7 9.07 -30.89 7.18 C-29.24 6.36 -27.59 5.53 -25.95 4.7 C-23.37 3.41 -20.77 2.13 -18.18 0.86 C-17.39 0.45 -16.59 0.05 -15.78 -0.36 C-9.49 -3.41 -6.28 -3.03 0 0 Z " fill="#193F76" transform="translate(295.51953125,444.00390625)"/>
<path d="M0 0 C2.16 1.1 4.31 2.2 6.47 3.3 C7.56 3.86 8.65 4.42 9.77 5 C14.64 7.46 19.57 9.79 24.5 12.12 C32.38 15.86 40.21 19.7 48 23.62 C60.51 29.92 73.13 35.95 85.79 41.95 C87.62 42.82 89.46 43.69 91.29 44.56 C92.96 45.35 94.63 46.14 96.3 46.93 C104.26 50.7 112.13 54.67 120 58.62 C121.3 59.28 122.61 59.93 123.91 60.59 C124.55 60.91 125.18 61.23 125.84 61.56 C139.47 68.4 153.11 75.22 166.9 81.75 C173.31 84.8 179.66 87.93 186 91.12 C196.23 96.27 206.55 101.22 216.89 106.14 C231.71 113.21 246.52 120.3 261.18 127.71 C263.69 128.97 266.21 130.23 268.73 131.49 C277.49 135.86 286.24 140.25 295 144.62 C295 158.49 295 172.35 295 186.62 C280.71 193.79 280.71 193.79 274.5 196.9 C270.31 199 266.11 201.1 261.92 203.2 C233.68 217.37 233.68 217.37 221.41 223.03 C217.57 224.83 213.79 226.73 210 228.62 C209.67 221.69 209.34 214.76 209 207.62 C206.94 208.66 204.88 209.69 202.75 210.75 C202 211.12 201.25 211.5 200.48 211.88 C195.82 214.21 191.17 216.55 186.51 218.89 C161.03 231.68 161.03 231.68 151.35 236.12 C146.29 238.47 141.37 240.94 136.55 243.75 C112.5 257.68 93.37 259.82 65.81 258.69 C53.66 258.34 41.52 257.99 29 257.62 C29 226.94 29 196.25 29 164.62 C-0.37 164.62 -29.74 164.62 -60 164.62 C-60 195.31 -60 226 -60 257.62 C-72.56 257.85 -85.12 258.08 -98.06 258.31 C-100.02 258.36 -100.02 258.36 -109.93 258.62 C-128.63 258.89 -143.55 258.31 -159.84 247.97 C-162.84 246.1 -165.94 244.62 -169.12 243.09 C-171.08 242.11 -173.04 241.12 -175 240.12 C-183.04 236.08 -191.11 232.11 -199.25 228.25 C-213.28 221.6 -227.13 214.6 -241 207.62 C-241 214.56 -241 221.49 -241 228.62 C-247.75 226.38 -247.75 226.38 -250.76 224.87 C-251.44 224.53 -252.12 224.19 -252.82 223.84 C-253.19 223.65 -253.19 223.65 -255.02 222.73 C-255.81 222.34 -256.59 221.95 -257.39 221.54 C-259.96 220.26 -262.52 218.97 -265.09 217.68 C-266.87 216.79 -268.66 215.89 -270.44 215 C-275.13 212.65 -279.81 210.3 -284.5 207.95 C-290.12 205.12 -295.75 202.3 -301.38 199.48 C-309.92 195.2 -318.46 190.91 -327 186.62 C-327 172.76 -327 158.9 -327 144.62 C-321.72 141.99 -316.44 139.35 -311 136.62 C-309.02 135.63 -307.04 134.63 -305 133.61 C-294.27 128.21 -283.5 122.92 -272.65 117.77 C-264.84 114.05 -257.1 110.21 -249.38 106.3 C-242.71 102.93 -235.99 99.7 -229.24 96.48 C-216.15 90.24 -203.12 83.85 -190.1 77.45 C-179.76 72.37 -169.42 67.32 -158.98 62.45 C-153.75 60 -148.58 57.44 -143.42 54.84 C-137.64 51.93 -131.82 49.08 -126 46.23 C-125.03 45.76 -124.07 45.29 -123.07 44.8 C-121.07 43.83 -119.08 42.85 -117.08 41.88 C-102.61 34.82 -88.16 27.75 -73.78 20.51 C-66.27 16.73 -58.7 13.11 -51.11 9.5 C-45.41 6.79 -39.75 4.03 -34.12 1.19 C-32.86 0.55 -31.59 -0.08 -30.32 -0.71 C-28.3 -1.72 -26.28 -2.75 -24.27 -3.79 C-23.5 -4.17 -22.73 -4.55 -21.94 -4.94 C-21.63 -5.09 -21.63 -5.09 -20.09 -5.88 C-12.73 -7.63 -6.28 -3.28 0 0 Z " fill="#193F76" transform="translate(528,211.375)"/>
<path d="M0 0 C0.85 0.41 1.7 0.81 2.57 1.23 C3.47 1.67 4.37 2.11 5.29 2.56 C5.76 2.79 5.76 2.79 8.15 3.93 C15.49 7.49 22.8 11.12 30.09 14.79 C35.21 17.37 40.35 19.93 45.48 22.5 C47.72 23.62 49.96 24.74 52.2 25.86 C52.73 26.12 52.73 26.12 55.44 27.47 C58.94 29.23 58.94 29.23 76.48 38 C76.48 63.08 76.48 88.16 76.48 114 C108.16 114 139.84 114 172.48 114 C172.48 145.68 172.48 177.36 172.48 210 C162.23 205.51 152.4 201.06 142.48 196 C142.15 202.93 141.82 209.86 141.48 217 C140.82 216.67 140.16 216.34 139.48 216 C139.81 208.74 140.14 201.48 140.48 194 C139.16 193.67 137.84 193.34 136.48 193 C134.73 192.23 133 191.42 131.29 190.59 C130.78 190.34 130.78 190.34 128.2 189.1 C127.12 188.57 126.04 188.04 124.92 187.5 C122.65 186.4 120.38 185.3 118.11 184.2 C116.98 183.65 115.86 183.11 114.7 182.55 C110.29 180.42 105.85 178.33 101.42 176.25 C93.04 172.29 84.75 168.17 76.48 164 C64.76 158.08 53 152.25 41.14 146.61 C31.73 142.13 22.35 137.56 12.98 133 C-2.5 125.45 -18 117.96 -33.57 110.61 C-43.62 105.87 -53.6 101.01 -63.52 96 C-66.21 94.64 -68.89 93.29 -71.58 91.93 C-72.75 91.34 -73.92 90.76 -75.12 90.15 C-81.54 87.01 -88.04 84.02 -94.52 81 C-94.52 66.81 -94.52 52.62 -94.52 38 C-92.6 37.12 -92.6 37.12 -82.89 32.68 C-69.21 26.38 -55.73 19.68 -42.28 12.89 C-38.49 10.97 -34.7 9.07 -30.89 7.18 C-29.24 6.36 -27.59 5.53 -25.95 4.7 C-23.37 3.41 -20.77 2.13 -18.18 0.86 C-17.39 0.45 -16.59 0.05 -15.78 -0.36 C-9.49 -3.41 -6.28 -3.03 0 0 Z " fill="#1E9093" transform="translate(295.51953125,444.00390625)"/>
<path d="M0 0 C2.19 1.04 4.33 2.18 6.44 3.38 C12.41 6.67 18.46 9.71 24.62 12.62 C37.12 18.54 49.53 24.61 61.94 30.69 C62.97 31.19 64.01 31.7 65.08 32.23 C71.05 35.15 77.03 38.07 83 41 C83 54.53 83 68.06 83 82 C73.82 86.59 64.68 91.16 55.38 95.49 C50.42 97.81 45.52 100.23 40.62 102.69 C30.46 107.79 20.22 112.75 9.99 117.72 C0.87 122.15 -8.23 126.6 -17.29 131.14 C-23.97 134.5 -30.7 137.76 -37.44 141 C-38.71 141.61 -39.98 142.23 -41.25 142.84 C-47.92 146.05 -54.6 149.24 -61.31 152.38 C-70.48 156.66 -79.51 161.22 -88.54 165.79 C-105.98 174.58 -123.6 183.03 -141.29 191.3 C-149.56 195.17 -157.69 199.31 -165.84 203.44 C-171.83 206.46 -177.87 209.21 -184 212 C-184 180.32 -184 148.64 -184 116 C-152.65 116 -121.3 116 -89 116 C-89 90.92 -89 65.84 -89 40 C-71.27 31.14 -71.27 31.14 -63.56 27.56 C-57.53 24.74 -51.61 21.79 -45.75 18.62 C-36.18 13.46 -26.37 8.82 -16.52 4.22 C-14.91 3.44 -13.32 2.62 -11.75 1.75 C-7.42 -0.64 -4.94 -1.63 0 0 Z " fill="#1E9093" transform="translate(741,442)"/>
<path d="M0 0 C28.38 0 56.76 0 86 0 C82.22 2.84 78.51 4.75 74.25 6.69 C53.02 16.5 53.02 16.5 46.93 20.29 C42.89 21.78 38.91 20.07 35.17 18.37 C33.74 17.69 32.32 16.99 30.9 16.29 C30.14 15.92 29.38 15.55 28.6 15.17 C27 14.39 25.41 13.61 23.81 12.83 C21.38 11.63 18.94 10.44 16.5 9.26 C14.94 8.5 13.39 7.74 11.84 6.98 C11.11 6.62 10.38 6.27 9.64 5.91 C8.95 5.57 8.27 5.23 7.57 4.89 C6.98 4.59 6.38 4.3 5.77 4 C4 3 4 3 0 0 Z " fill="#1D8E92" transform="translate(469,654)"/>
<path d="M0 0 C0.33 0 0.66 0 1 0 C1 25.08 1 50.16 1 76 C-30.35 76 -61.7 76 -94 76 C-94 107.68 -94 139.36 -94 172 C-123.37 172 -152.74 172 -183 172 C-183 140.32 -183 108.64 -183 76 C-182.67 76 -182.34 76 -182 76 C-182 106.69 -182 137.38 -182 169 C-174 169 -174 169 -172 168 C-169.67 167.94 -167.33 167.95 -165 167.99 C-164.28 168.01 -163.55 168.02 -162.81 168.03 C-161.25 168.05 -159.68 168.08 -158.11 168.11 C-155.64 168.16 -153.17 168.2 -150.69 168.23 C-145.44 168.32 -140.19 168.41 -134.94 168.5 C-128.85 168.61 -122.76 168.71 -116.68 168.8 C-114.23 168.84 -111.79 168.89 -109.34 168.94 C-107.85 168.96 -106.36 168.98 -104.87 169.01 C-103.57 169.03 -102.26 169.05 -100.92 169.08 C-98 169 -98 169 -97 168 C-96.87 165.11 -96.81 162.24 -96.79 159.35 C-96.78 158.43 -96.77 157.51 -96.76 156.56 C-96.73 153.56 -96.71 150.56 -96.68 147.56 C-96.67 145.71 -96.65 143.87 -96.63 142.02 C-96.56 135.16 -96.5 128.3 -96.44 121.44 C-96.29 106.11 -96.15 90.79 -96 75 C-64.32 75 -32.64 75 0 75 C0 50.25 0 25.5 0 0 Z " fill="#B8E8E7" transform="translate(651,482)"/>
<path d="M0 0 C0.33 0.17 0.33 0.17 2 1 C2 24.76 2 48.52 2 73 C33.02 73 64.04 73 96 73 C96 73.99 96 74.98 96 76 C64.32 76 32.64 76 0 76 C0 50.92 0 25.84 0 0 Z " fill="#CCEBEB" transform="translate(372,482)"/>
<path d="M0 0 C1.65 0 3.3 0 5 0 C-5.41 7.97 -14.32 8.69 -27.04 8.49 C-28.77 8.48 -30.51 8.47 -32.24 8.47 C-36.78 8.45 -41.31 8.4 -45.84 8.34 C-50.48 8.29 -55.12 8.27 -59.76 8.24 C-68.84 8.19 -77.92 8.11 -87 8 C-86.67 7.01 -86.34 6.02 -86 5 C-85.06 5 -84.12 5.01 -83.15 5.01 C-74.28 5.05 -65.4 5.08 -56.53 5.1 C-51.97 5.11 -47.41 5.13 -42.85 5.15 C-38.45 5.17 -34.04 5.18 -29.64 5.19 C-27.96 5.19 -26.28 5.2 -24.6 5.21 C-22.25 5.23 -19.9 5.23 -17.54 5.23 C-17.2 5.23 -17.2 5.23 -15.45 5.25 C-11.52 5.23 -8.54 4.72 -5 3 C-5 2.67 -5 2.34 -5 2 C-3.35 2 -1.7 2 0 2 C0 1.34 0 0.68 0 0 Z " fill="#274168" transform="translate(644,461)"/>
<path d="M0 0 C2.64 0 5.28 0 8 0 C8 0.33 8 0.66 8 1 C5.69 1 3.38 1 1 1 C1 31.36 1 61.72 1 93 C1.66 93 2.32 93 3 93 C3 92.34 3 91.68 3 91 C5.46 90 7.92 89 10.38 88 C11.07 87.71 11.77 87.43 12.49 87.13 C17.77 85 17.77 85 20 85 C20 84.34 20 83.68 20 83 C21.65 83 23.3 83 25 83 C17.61 88.83 8.49 92.14 0 96 C0 64.32 0 32.64 0 0 Z " fill="#228787" transform="translate(557,558)"/>
<path d="M0 0 C0.99 0.33 1.98 0.66 3 1 C3 14.53 3 28.06 3 42 C-11 49 -11 49 -13 49 C-13 48.34 -13 47.68 -13 47 C-12.01 47 -11.02 47 -10 47 C-10 46.34 -10 45.68 -10 45 C-8.35 45 -6.7 45 -5 45 C-5 44.34 -5 43.68 -5 43 C-3.35 42.34 -1.7 41.68 0 41 C0 27.47 0 13.94 0 0 Z " fill="#4F999A" transform="translate(821,482)"/>
<path d="M0 0 C-0.66 0.33 -0.66 0.33 -4 2 C-4.33 15.86 -4.66 29.72 -5 44 C-7.05 40.93 -7.25 40.34 -7.23 36.9 C-7.23 36.08 -7.23 35.25 -7.23 34.41 C-7.22 33.53 -7.21 32.65 -7.2 31.74 C-7.19 30.83 -7.19 29.93 -7.19 28.99 C-7.18 26.1 -7.15 23.21 -7.12 20.31 C-7.11 18.35 -7.11 16.39 -7.1 14.43 C-7.08 9.62 -7.04 4.81 -7 0 C-3.99 -0.93 -3.13 -1.04 0 0 Z " fill="#D0E4F5" transform="translate(206,354)"/>
<path d="M0 0 C0.33 0 0.66 0 1 0 C1 13.86 1 27.72 1 42 C-5 45 -5 45 -7 45 C-7 44.34 -7 43.68 -7 43 C-6.5 42.83 -6.5 42.83 -4 42 C-1.21 39.44 -0.99 37.88 -0.57 34.06 C-0.53 32.47 -0.5 30.88 -0.49 29.3 C-0.47 28.46 -0.45 27.62 -0.43 26.76 C-0.38 24.09 -0.35 21.42 -0.31 18.75 C-0.28 16.94 -0.24 15.12 -0.21 13.31 C-0.12 8.88 -0.06 4.44 0 0 Z " fill="#1D3A66" transform="translate(822,356)"/>
<path d="M0 0 C1.98 0 3.96 0 6 0 C3.81 2.41 1.78 3.76 -1.17 5.12 C-1.98 5.5 -2.79 5.88 -3.63 6.27 C-4.47 6.65 -5.32 7.04 -6.19 7.44 C-7.85 8.21 -9.51 8.98 -11.17 9.75 C-11.98 10.12 -12.78 10.49 -13.61 10.87 C-15.93 11.97 -18.21 13.12 -20.49 14.29 C-24 16 -24 16 -26 16 C-26 15.34 -26 14.68 -26 14 C-24.68 14 -23.36 14 -22 14 C-22 13.34 -22 12.68 -22 12 C-20.68 12 -19.36 12 -18 12 C-18 11.34 -18 10.68 -18 10 C-16.68 10 -15.36 10 -14 10 C-14 9.34 -14 8.68 -14 8 C-12.68 8 -11.36 8 -10 8 C-10 7.34 -10 6.68 -10 6 C-8.68 6 -7.36 6 -6 6 C-6 5.34 -6 4.68 -6 4 C-4.02 3.34 -2.04 2.68 0 2 C0 1.34 0 0.68 0 0 Z " fill="#4B8B8E" transform="translate(735,563)"/>
<path d="M0 0 C1.65 0 3.3 0 5 0 C2.14 2.26 -0.75 4.02 -3.98 5.7 C-4.92 6.19 -5.85 6.67 -6.82 7.17 C-7.78 7.67 -8.75 8.17 -9.75 8.69 C-10.73 9.2 -11.72 9.71 -12.73 10.24 C-15.15 11.49 -17.58 12.75 -20 14 C-20.33 13.34 -20.66 12.68 -21 12 C-20.67 11.34 -20.34 10.68 -20 10 C-18.68 10 -17.36 10 -16 10 C-16 9.34 -16 8.68 -16 8 C-13.03 7.01 -10.06 6.02 -7 5 C-7 4.34 -7 3.68 -7 3 C-5.85 2.84 -5.85 2.84 0 2 C0 1.34 0 0.68 0 0 Z " fill="#2F4569" transform="translate(784,681)"/>
<path d="M0 0 C1.65 0 3.3 0 5 0 C2.27 2.16 -0.39 3.79 -3.55 5.26 C-4.39 5.66 -5.24 6.05 -6.11 6.46 C-6.54 6.66 -6.54 6.66 -8.75 7.69 C-9.64 8.1 -10.53 8.52 -11.44 8.95 C-13.63 9.97 -15.81 10.99 -18 12 C-18 11.34 -18 10.68 -18 10 C-17.34 10 -16.68 10 -16 10 C-16 9.34 -16 8.68 -16 8 C-13.09 6.74 -11.2 6 -8 6 C-8 4.68 -8 3.36 -8 2 C-5.36 2 -2.72 2 0 2 C0 1.34 0 0.68 0 0 Z " fill="#384E6F" transform="translate(689,729)"/>
<path d="M0 0 C1.65 0 3.3 0 5 0 C-2.36 5.8 -11.49 9.2 -20 13 C-19.67 12.01 -19.34 11.02 -19 10 C-18.34 10 -17.68 10 -17 10 C-17 9.34 -17 8.68 -17 8 C-14.54 7 -12.08 6 -9.62 5 C-8.93 4.71 -8.23 4.43 -7.51 4.13 C-2.23 2 -2.23 2 0 2 C0 1.34 0 0.68 0 0 Z " fill="#2F7D98" transform="translate(577,641)"/>
<path d="M0 0 C-3.7 3.07 -7.84 5.07 -12.12 7.19 C-12.85 7.56 -13.58 7.92 -14.33 8.3 C-19.75 11 -19.75 11 -22 11 C-21 8 -21 8 -19.19 6.81 C-17 6 -17 6 -13 6 C-13 5.34 -13 4.68 -13 4 C-4.74 -0.59 -4.74 -0.59 0 0 Z " fill="#DAECF7" transform="translate(266,591)"/>
<path d="M0 0 C1.65 0 3.3 0 5 0 C1.32 3.15 -2.84 4.82 -7.25 6.69 C-8 7.01 -8.74 7.33 -9.51 7.66 C-11.34 8.44 -13.17 9.22 -15 10 C-14.67 8.35 -14.34 6.7 -14 5 C-13.01 5.16 -13.01 5.16 -8 6 C-8 5.34 -8 4.68 -8 4 C-6.68 4 -5.36 4 -4 4 C-4 3.34 -4 2.68 -4 2 C-2.68 2 -1.36 2 0 2 C0 1.34 0 0.68 0 0 Z " fill="#448B8E" transform="translate(639,611)"/>
<path d="M0 0 C1.98 0 3.96 0 6 0 C6 0.66 6 1.32 6 2 C6.5 2.12 6.5 2.12 9 2.75 C13.28 3.96 17.09 5.91 21 8 C18.67 8.81 17.38 9.12 14.99 8.38 C14.29 8.04 13.6 7.7 12.89 7.35 C12.14 6.98 11.38 6.62 10.61 6.24 C9.83 5.85 9.05 5.46 8.25 5.06 C7.46 4.68 6.66 4.29 5.85 3.89 C3.89 2.94 1.95 1.97 0 1 C0 0.67 0 0.34 0 0 Z " fill="#287F96" transform="translate(446,643)"/>
<path d="M0 0 C0.4 0.01 0.4 0.01 2.44 0.06 C-0.74 2.62 -4.04 4.44 -7.69 6.25 C-8.74 6.78 -9.8 7.31 -10.88 7.86 C-13.56 9.06 -13.56 9.06 -15.56 9.06 C-15.56 8.4 -15.56 7.74 -15.56 7.06 C-14.57 7.06 -13.58 7.06 -12.56 7.06 C-12.56 6.4 -12.56 5.74 -12.56 5.06 C-11.57 5.06 -10.58 5.06 -9.56 5.06 C-9.56 4.4 -9.56 3.74 -9.56 3.06 C-9.08 2.91 -9.08 2.91 -6.62 2.12 C-0.54 0.01 -0.54 0.01 0 0 Z " fill="#273E63" transform="translate(812.5625,667.9375)"/>
<path d="M0 0 C-2.58 1.32 -5.16 2.63 -7.75 3.94 C-8.48 4.31 -9.21 4.68 -9.96 5.07 C-10.67 5.43 -11.38 5.78 -12.11 6.15 C-12.43 6.32 -12.43 6.32 -14.08 7.15 C-16.03 8.01 -17.92 8.54 -20 9 C-16.99 5.68 -14 3.7 -10 1.69 C-8.97 1.16 -7.94 0.62 -6.88 0.07 C-3.79 -1.08 -3 -0.93 0 0 Z " fill="#2E7F9A" transform="translate(536,664)"/>
<path d="M0 0 C-3.16 2.53 -6.46 4.41 -10.06 6.25 C-10.58 6.52 -10.58 6.52 -13.22 7.89 C-16 9 -16 9 -19 8 C-18.24 7.59 -17.48 7.18 -16.7 6.76 C-15.71 6.22 -14.71 5.68 -13.69 5.12 C-13.19 4.86 -13.19 4.86 -10.7 3.51 C-4.03 -0.22 -4.03 -0.22 0 0 Z " fill="#2F8198" transform="translate(555,654)"/>
<path d="M0 0 C1.65 0 3.3 0 5 0 C1.94 2.49 -1.15 4.1 -4.75 5.69 C-5.73 6.12 -6.72 6.56 -7.73 7.01 C-8.48 7.34 -9.23 7.66 -10 8 C-10 7.34 -10 6.68 -10 6 C-9.34 6 -8.68 6 -8 6 C-7.67 4.68 -7.34 3.36 -7 2 C-4.69 2 -2.38 2 0 2 C0 1.34 0 0.68 0 0 Z " fill="#374D6F" transform="translate(625,761)"/>
<path d="M0 0 C2.31 0.33 4.62 0.66 7 1 C7 1.66 7 2.32 7 3 C8.07 3.25 9.14 3.5 10.25 3.75 C14 5 15.52 6.02 18 9 C13.64 7.65 9.69 5.95 5.62 3.88 C4.57 3.34 3.51 2.8 2.41 2.24 C1.62 1.83 0.82 1.42 0 1 C0 0.67 0 0.34 0 0 Z " fill="#2A8499" transform="translate(469,654)"/>
<path d="M0 0 C-3.66 3.05 -9.08 7 -14 7 C-14 6.01 -14 5.02 -14 4 C-12.68 4 -11.36 4 -10 4 C-10 3.34 -10 2.68 -10 2 C-6.49 0.4 -3.86 -0.22 0 0 Z " fill="#384D6D" transform="translate(771,423)"/>
<path d="M0 0 C-4.95 2.31 -9.9 4.62 -15 7 C-15 4 -15 4 -14 3 C-12.33 2.96 -10.67 2.96 -9 3 C-9 2.34 -9 1.68 -9 1 C-5.19 -0.8 -4.29 -1.07 0 0 Z " fill="#2C4164" transform="translate(731,422)"/>
<path d="M0 0 C-2.31 1.15 -2.31 1.15 -14 7 C-14.33 6.34 -14.66 5.68 -15 5 C-12 3 -12 3 -9 3 C-9 2.34 -9 1.68 -9 1 C-3.38 -1.12 -3.38 -1.12 0 0 Z " fill="#2D4466" transform="translate(806,406)"/>
<path d="M0 0 C0.46 0.03 0.46 0.03 2.81 0.19 C-0.85 3.24 -6.27 7.19 -11.19 7.19 C-10.86 6.2 -10.53 5.21 -10.19 4.19 C-8.86 3.83 -7.53 3.5 -6.19 3.19 C-5.73 2.67 -5.28 2.16 -4.81 1.62 C-3.19 0.19 -3.19 0.19 0 0 Z " fill="#DBECF8" transform="translate(734.1875,586.8125)"/>
<path d="M0 0 C-2.31 1.15 -2.31 1.15 -14 7 C-13.67 5.68 -13.34 4.36 -13 3 C-9.56 1.31 -9.56 1.31 -6 0 C-4 -1 -4 -1 0 0 Z " fill="#2D4266" transform="translate(713,720)"/>
<path d="M0 0 C1.98 0 3.96 0 6 0 C3.86 2.33 1.81 3.82 -1 5.25 C-1.34 5.43 -1.34 5.43 -3.06 6.33 C-5 7 -5 7 -8 6 C-7.34 6 -6.68 6 -6 6 C-6 5.34 -6 4.68 -6 4 C-4.02 3.34 -2.04 2.68 0 2 C0 1.34 0 0.68 0 0 Z " fill="#41888A" transform="translate(735,563)"/>
<path d="M0 0 C2.31 0.33 4.62 0.66 7 1 C4.65 3.72 2.38 4.81 -1 6 C-0.67 4.02 -0.34 2.04 0 0 Z " fill="#314B70" transform="translate(739,434)"/>
<path d="M0 0 C0.66 0.66 1.32 1.32 2 2 C-0.14 2.99 -0.14 2.99 -11 8 C-11.33 7.34 -11.66 6.68 -12 6 C-9.35 4.54 -8.11 4 -5 4 C-5 3.34 -5 2.68 -5 2 C-3.35 1.34 -1.7 0.68 0 0 Z " fill="#DEEFFB" transform="translate(350,281)"/>
<path d="M0 0 C-2.12 2.12 -3.77 2.93 -6.5 4.12 C-7.29 4.48 -8.09 4.83 -8.91 5.2 C-11 6 -11 6 -13 6 C-13 5.34 -13 4.68 -13 4 C-8.39 1.05 -5.63 -0.55 0 0 Z " fill="#DFEFFA" transform="translate(412,253)"/>
<path d="M0 0 C1.32 0.99 2.64 1.98 4 3 C2.74 3.7 1.46 4.38 0.19 5.06 C-0.52 5.45 -1.23 5.83 -1.96 6.22 C-4 7 -4 7 -7 6 C-6.34 6 -5.68 6 -5 6 C-5 5.34 -5 4.68 -5 4 C-4.01 3.67 -3.02 3.34 -2 3 C-2 2.34 -2 1.68 -2 1 C-1.34 0.67 -0.68 0.34 0 0 Z " fill="#3A8889" transform="translate(750,555)"/>
<path d="M0 0 C-3.4 2.75 -7.48 6 -12 6 C-12 5.34 -12 4.68 -12 4 C-7.91 0.69 -5.26 -0.5 0 0 Z " fill="#E8F7FF" transform="translate(241,603)"/>
<path d="M0 0 C0.56 0.14 1.11 0.29 1.69 0.44 C4.11 1.03 6.55 1.52 9 2 C6.61 3.89 4.93 5.02 2 6 C1.34 4.02 0.68 2.04 0 0 Z " fill="#3B8F90" transform="translate(766,545)"/>
<path d="M0 0 C-3.4 2.75 -7.48 6 -12 6 C-12 5.34 -12 4.68 -12 4 C-4.71 -0.57 -4.71 -0.57 0 0 Z " fill="#DCEEF9" transform="translate(399,259)"/>
<path d="M0 0 C-3.4 2.75 -7.48 6 -12 6 C-12 5.34 -12 4.68 -12 4 C-11.01 4 -10.02 4 -9 4 C-9 3.34 -9 2.68 -9 2 C-5.87 0.14 -3.63 -0.2 0 0 Z " fill="#D2E7F5" transform="translate(424,247)"/>
<path d="M0 0 C2.97 0.33 5.94 0.66 9 1 C9.33 2.32 9.66 3.64 10 5 C6.09 3.84 3.13 2.64 0 0 Z " fill="#354F7D" transform="translate(300,714)"/>
<path d="M0 0 C1.65 0 3.3 0 5 0 C1.59 2.86 -1.91 4.35 -6 6 C-6.33 5.01 -6.66 4.02 -7 3 C-5.85 2.84 -5.85 2.84 0 2 C0 1.34 0 0.68 0 0 Z " fill="#273E62" transform="translate(784,681)"/>
<path d="M0 0 C1.65 0 3.3 0 5 0 C1.6 2.75 -2.48 6 -7 6 C-7 5.34 -7 4.68 -7 4 C-4 2 -4 2 0 2 C0 1.34 0 0.68 0 0 Z " fill="#E5F8FE" transform="translate(279,315)"/>
<path d="M0 0 C-1.62 0.84 -3.25 1.67 -4.88 2.5 C-5.33 2.73 -5.33 2.73 -7.62 3.91 C-10 5 -10 5 -12 5 C-11.67 4.01 -11.34 3.02 -11 2 C-9.68 2 -8.36 2 -7 2 C-7 1.34 -7 0.68 -7 0 C-3.99 -0.93 -3.13 -1.04 0 0 Z " fill="#D9EAF8" transform="translate(475,223)"/>
<path d="M0 0 C1.98 0 3.96 0 6 0 C2.59 2.86 -0.91 4.35 -5 6 C-5 5.34 -5 4.68 -5 4 C-4.68 3.95 -4.68 3.95 -3.06 3.69 C-2.38 3.46 -1.7 3.23 -1 3 C-0.67 2.01 -0.34 1.02 0 0 Z " fill="#364A69" transform="translate(580,783)"/>
<path d="M0 0 C-1.82 0.83 -1.82 0.83 -11 5 C-10.67 3.68 -10.34 2.36 -10 1 C-3.38 -1.12 -3.38 -1.12 0 0 Z " fill="#394D6B" transform="translate(614,770)"/>
<path d="M0 0 C0 0.99 0 1.98 0 3 C-0.99 3.66 -1.98 4.32 -3 5 C-2.67 5.66 -2.34 6.32 -2 7 C-2.99 7 -3.98 7 -5 7 C-5.66 5.68 -6.32 4.36 -7 3 C-4.69 2.01 -2.38 1.02 0 0 Z " fill="#299899" transform="translate(709,454)"/>
<path d="M0 0 C1.65 0 3.3 0 5 0 C5.33 0.66 5.66 1.32 6 2 C8.06 3.12 8.06 3.12 10 4 C9.67 4.66 9.34 5.32 9 6 C6.03 4.35 3.06 2.7 0 1 C0 0.67 0 0.34 0 0 Z " fill="#2B4875" transform="translate(479,803)"/>
<path d="M0 0 C0.99 0.33 1.98 0.66 3 1 C-0.13 3.64 -3.09 4.84 -7 6 C-7 5.34 -7 4.68 -7 4 C-4 2 -4 2 0 2 C0 1.34 0 0.68 0 0 Z " fill="#DCEEF9" transform="translate(255,327)"/>
<path d="M0 0 C-1.46 0.84 -2.91 1.67 -4.38 2.5 C-4.78 2.73 -4.78 2.73 -6.84 3.91 C-9 5 -9 5 -11 5 C-11 4.01 -11 3.02 -11 2 C-9.73 1.47 -8.46 0.95 -7.19 0.44 C-6.48 0.15 -5.77 -0.14 -5.04 -0.44 C-3 -1 -3 -1 0 0 Z " fill="#3D4E6B" transform="translate(522,816)"/>
<path d="M0 0 C2.97 1.12 5.33 2.22 8 4 C8 4.66 8 5.32 8 6 C4.22 4.91 1.53 4.09 -1 1 C-0.67 0.67 -0.34 0.34 0 0 Z " fill="#E2F8F8" transform="translate(739,439)"/>
<path d="M0 0 C0 0.66 0 1.32 0 2 C0.66 2.33 1.32 2.66 2 3 C2.33 2.34 2.66 1.68 3 1 C3 2.32 3 3.64 3 5 C-1.75 4.12 -1.75 4.12 -4 3 C-4 2.34 -4 1.68 -4 1 C-2 0 -2 0 0 0 Z " fill="#304B72" transform="translate(283,434)"/>
<path d="M0 0 C0.58 0.56 1.15 1.11 1.75 1.69 C1.75 2.35 1.75 3.01 1.75 3.69 C-4 1.94 -4 1.94 -6.25 -0.31 C-3.47 -1.41 -2.65 -1.55 0 0 Z " fill="#44999C" transform="translate(304.25,571.3125)"/>
<path d="M0 0 C-2.85 2.32 -5.54 3.75 -9 5 C-9 4.34 -9 3.68 -9 3 C-8.34 3 -7.68 3 -7 3 C-7 2.34 -7 1.68 -7 1 C-4.54 -0.23 -2.72 -0.07 0 0 Z " fill="#334768" transform="translate(560,796)"/>
<path d="M0 0 C1.65 0 3.3 0 5 0 C2.65 2.72 0.38 3.81 -3 5 C-3.33 4.34 -3.66 3.68 -4 3 C-3.01 2.67 -2.02 2.34 -1 2 C-0.67 1.34 -0.34 0.68 0 0 Z " fill="#314367" transform="translate(676,445)"/>
<path d="M0 0 C1.13 0.02 2.27 0.04 3.44 0.06 C1.05 1.95 -0.63 3.09 -3.56 4.06 C-3.89 3.07 -4.22 2.08 -4.56 1.06 C-3.56 0.06 -3.56 0.06 0 0 Z " fill="#344C70" transform="translate(703.5625,432.9375)"/>
<path d="M0 0 C1.98 0 3.96 0 6 0 C3.38 2.15 1.36 3.4 -2 4 C-1.34 2.68 -0.68 1.36 0 0 Z " fill="#263F62" transform="translate(748,431)"/>
<path d="M0 0 C1.32 0 2.64 0 4 0 C4 0.66 4 1.32 4 2 C-1.75 5 -1.75 5 -4 5 C-4 4.34 -4 3.68 -4 3 C-3.01 2.67 -2.02 2.34 -1 2 C-0.67 1.34 -0.34 0.68 0 0 Z " fill="#304363" transform="translate(819,396)"/>
<path d="M0 0 C-2.62 2.15 -4.64 3.4 -8 4 C-8.33 3.34 -8.66 2.68 -9 2 C-5.56 -0.29 -4.01 -0.18 0 0 Z " fill="#DDEEF8" transform="translate(383,267)"/>
</svg>
